<svg width="24" height="24" viewBox="0 0 24 24" fill="none" xmlns="http://www.w3.org/2000/svg">
<path fill-rule="evenodd" clip-rule="evenodd" d="M3 7C2.44728 7 2 7.44728 2 8V16C2 16.5527 2.44728 17 3 17H5C5.55228 17 6 17.4477 6 18C6 18.5523 5.55228 19 5 19H3C1.34272 19 0 17.6573 0 16V8C0 6.34272 1.34272 5 3 5H7C7.55228 5 8 5.44772 8 6C8 6.55228 7.55228 7 7 7H3ZM14 6C14 5.44772 14.4477 5 15 5H17C18.6573 5 20 6.34272 20 8V16C20 17.6573 18.6573 19 17 19H14C13.4477 19 13 18.5523 13 18C13 17.4477 13.4477 17 14 17H17C17.5527 17 18 16.5527 18 16V8C18 7.44728 17.5527 7 17 7H15C14.4477 7 14 6.55228 14 6Z" fill="black"/>
<path fill-rule="evenodd" clip-rule="evenodd" d="M11.5547 5.16795C12.0142 5.4743 12.1384 6.09517 11.832 6.5547L8.86852 11H13C13.3688 11 13.7077 11.203 13.8817 11.5281C14.0557 11.8533 14.0366 12.2478 13.832 12.5547L9.83205 18.5547C9.5257 19.0142 8.90483 19.1384 8.4453 18.832C7.98577 18.5257 7.8616 17.9048 8.16795 17.4453L11.1315 13H7C6.6312 13 6.29234 12.797 6.11833 12.4719C5.94431 12.1467 5.96338 11.7522 6.16795 11.4453L10.1679 5.4453C10.4743 4.98577 11.0952 4.8616 11.5547 5.16795Z" fill="black"/>
<path fill-rule="evenodd" clip-rule="evenodd" d="M6.24241 8.62944C6.09705 8.54704 5.92902 8.5 5.75 8.5H4.5C3.94772 8.5 3.5 8.94772 3.5 9.5V14.5C3.5 15.0523 3.94772 15.5 4.5 15.5H5.75C6.30228 15.5 6.75 15.0523 6.75 14.5V14.4875C5.927 14.405 5.19121 13.9184 4.79581 13.1796C4.36077 12.3668 4.40845 11.3804 4.91987 10.6132L6.24241 8.62944Z" fill="black"/>
<path fill-rule="evenodd" clip-rule="evenodd" d="M23 10C23.5523 10 24 10.4477 24 11V13C24 13.5523 23.5523 14 23 14C22.4477 14 22 13.5523 22 13V11C22 10.4477 22.4477 10 23 10Z" fill="black"/>
</svg>
