<svg width="24" height="24" viewBox="0 0 24 24" fill="none" xmlns="http://www.w3.org/2000/svg">
<path fill-rule="evenodd" clip-rule="evenodd" d="M3 7C2.44828 7 2 7.44828 2 8V16C2 16.5517 2.44828 17 3 17H17C17.5517 17 18 16.5517 18 16V8C18 7.44828 17.5517 7 17 7H3ZM0 8C0 6.34372 1.34372 5 3 5H17C18.6563 5 20 6.34372 20 8V16C20 17.6563 18.6563 19 17 19H3C1.34372 19 0 17.6563 0 16V8Z" fill="black"/>
<path d="M15.5 8.5H4.5C3.94772 8.5 3.5 8.94772 3.5 9.5V14.5C3.5 15.0523 3.94772 15.5 4.5 15.5H15.5C16.0523 15.5 16.5 15.0523 16.5 14.5V9.5C16.5 8.94772 16.0523 8.5 15.5 8.5Z" fill="black"/>
<path fill-rule="evenodd" clip-rule="evenodd" d="M23 10C23.5523 10 24 10.4477 24 11V13C24 13.5523 23.5523 14 23 14C22.4477 14 22 13.5523 22 13V11C22 10.4477 22.4477 10 23 10Z" fill="black"/>
</svg>
