<?xml version="1.0" encoding="UTF-8" standalone="no"?>
<!-- Generator: Gravit.io -->

<svg
   xmlns:dc="http://purl.org/dc/elements/1.1/"
   xmlns:cc="http://creativecommons.org/ns#"
   xmlns:rdf="http://www.w3.org/1999/02/22-rdf-syntax-ns#"
   xmlns:svg="http://www.w3.org/2000/svg"
   xmlns="http://www.w3.org/2000/svg"
   xmlns:sodipodi="http://sodipodi.sourceforge.net/DTD/sodipodi-0.dtd"
   xmlns:inkscape="http://www.inkscape.org/namespaces/inkscape"
   style="isolation:isolate"
   viewBox="0 0 24 24"
   width="24"
   height="24"
   version="1.1"
   id="svg21"
   sodipodi:docname="cell-off.svg"
   inkscape:version="0.92.4 5da689c313, 2019-01-14">
  <metadata
     id="metadata25">
    <rdf:RDF>
      <cc:Work
         rdf:about="">
        <dc:format>image/svg+xml</dc:format>
        <dc:type
           rdf:resource="http://purl.org/dc/dcmitype/StillImage" />
      </cc:Work>
    </rdf:RDF>
  </metadata>
  <sodipodi:namedview
     pagecolor="#ffffff"
     bordercolor="#666666"
     borderopacity="1"
     objecttolerance="10"
     gridtolerance="10"
     guidetolerance="10"
     inkscape:pageopacity="0"
     inkscape:pageshadow="2"
     inkscape:window-width="640"
     inkscape:window-height="480"
     id="namedview23"
     showgrid="false"
     inkscape:zoom="9.8333333"
     inkscape:cx="12"
     inkscape:cy="12"
     inkscape:window-x="0"
     inkscape:window-y="0"
     inkscape:window-maximized="0"
     inkscape:current-layer="svg21" />
  <defs
     id="defs5">
    <clipPath
       id="_clipPath_O0nhM4R7Embs12GSdCZhOBDIEZgohJ0H">
      <rect
         width="24"
         height="24"
         id="rect2" />
    </clipPath>
  </defs>
  <path
     style="color:#000000;font-style:normal;font-variant:normal;font-weight:normal;font-stretch:normal;font-size:medium;line-height:normal;font-family:sans-serif;font-variant-ligatures:normal;font-variant-position:normal;font-variant-caps:normal;font-variant-numeric:normal;font-variant-alternates:normal;font-feature-settings:normal;text-indent:0;text-align:start;text-decoration:none;text-decoration-line:none;text-decoration-style:solid;text-decoration-color:#000000;letter-spacing:normal;word-spacing:normal;text-transform:none;writing-mode:lr-tb;direction:ltr;text-orientation:mixed;dominant-baseline:auto;baseline-shift:baseline;text-anchor:start;white-space:normal;shape-padding:0;clip-rule:nonzero;display:inline;overflow:visible;visibility:visible;opacity:1;isolation:auto;mix-blend-mode:normal;color-interpolation:sRGB;color-interpolation-filters:linearRGB;solid-color:#000000;solid-opacity:1;vector-effect:non-scaling-stroke;fill:#000000;fill-opacity:1;fill-rule:nonzero;stroke:none;stroke-width:2;stroke-linecap:round;stroke-linejoin:round;stroke-miterlimit:4;stroke-dasharray:none;stroke-dashoffset:0;stroke-opacity:1;color-rendering:auto;image-rendering:auto;shape-rendering:auto;text-rendering:auto;enable-background:accumulate"
     d="m 6,18.501953 a 1.0001,1.0001 0 1 0 0,2 1.0001,1.0001 0 1 0 0,-2 z"
     id="line7"
     inkscape:connector-curvature="0" />
  <path
     style="color:#000000;font-style:normal;font-variant:normal;font-weight:normal;font-stretch:normal;font-size:medium;line-height:normal;font-family:sans-serif;font-variant-ligatures:normal;font-variant-position:normal;font-variant-caps:normal;font-variant-numeric:normal;font-variant-alternates:normal;font-feature-settings:normal;text-indent:0;text-align:start;text-decoration:none;text-decoration-line:none;text-decoration-style:solid;text-decoration-color:#000000;letter-spacing:normal;word-spacing:normal;text-transform:none;writing-mode:lr-tb;direction:ltr;text-orientation:mixed;dominant-baseline:auto;baseline-shift:baseline;text-anchor:start;white-space:normal;shape-padding:0;clip-rule:nonzero;display:inline;overflow:visible;visibility:visible;opacity:1;isolation:auto;mix-blend-mode:normal;color-interpolation:sRGB;color-interpolation-filters:linearRGB;solid-color:#000000;solid-opacity:1;vector-effect:non-scaling-stroke;fill:#000000;fill-opacity:1;fill-rule:nonzero;stroke:none;stroke-width:2;stroke-linecap:round;stroke-linejoin:round;stroke-miterlimit:4;stroke-dasharray:none;stroke-dashoffset:0;stroke-opacity:1;color-rendering:auto;image-rendering:auto;shape-rendering:auto;text-rendering:auto;enable-background:accumulate"
     d="M 9.5644531,13.482422 A 1.0001,1.0001 0 0 0 8.578125,14.496094 v 5.005859 a 1.0001,1.0001 0 1 0 2,0 V 14.496094 A 1.0001,1.0001 0 0 0 9.5644531,13.482422 Z"
     id="line9"
     inkscape:connector-curvature="0" />
  <path
     style="color:#000000;font-style:normal;font-variant:normal;font-weight:normal;font-stretch:normal;font-size:medium;line-height:normal;font-family:sans-serif;font-variant-ligatures:normal;font-variant-position:normal;font-variant-caps:normal;font-variant-numeric:normal;font-variant-alternates:normal;font-feature-settings:normal;text-indent:0;text-align:start;text-decoration:none;text-decoration-line:none;text-decoration-style:solid;text-decoration-color:#000000;letter-spacing:normal;word-spacing:normal;text-transform:none;writing-mode:lr-tb;direction:ltr;text-orientation:mixed;dominant-baseline:auto;baseline-shift:baseline;text-anchor:start;white-space:normal;shape-padding:0;clip-rule:nonzero;display:inline;overflow:visible;visibility:visible;opacity:1;isolation:auto;mix-blend-mode:normal;color-interpolation:sRGB;color-interpolation-filters:linearRGB;solid-color:#000000;solid-opacity:1;vector-effect:non-scaling-stroke;fill:#000000;fill-opacity:1;fill-rule:nonzero;stroke:none;stroke-width:2;stroke-linecap:round;stroke-linejoin:round;stroke-miterlimit:4;stroke-dasharray:none;stroke-dashoffset:0;stroke-opacity:1;color-rendering:auto;image-rendering:auto;shape-rendering:auto;text-rendering:auto;enable-background:accumulate"
     d="m 17.957031,3.5136719 a 1.0001,1.0001 0 0 0 -0.09961,0.00781 1.0001,1.0001 0 0 0 -0.19336,0.048828 1.0001,1.0001 0 0 0 -0.18164,0.085937 1.0001,1.0001 0 0 0 -0.292969,0.2695312 1.0001,1.0001 0 0 0 -0.09961,0.171875 1.0001,1.0001 0 0 0 -0.03711,0.09375 1.0001,1.0001 0 0 0 -0.02734,0.095703 1.0001,1.0001 0 0 0 -0.01758,0.097656 A 1.0001,1.0001 0 0 0 17,4.4980469 v 7.9023441 a 1.0001,1.0001 0 0 0 0.0059,0.09961 1.0001,1.0001 0 0 0 0.07813,0.289062 1.0001,1.0001 0 0 0 0.160157,0.251954 1.0001,1.0001 0 0 0 0.226562,0.193359 1.0001,1.0001 0 0 0 0.08789,0.04883 1.0001,1.0001 0 0 0 0.1875,0.07031 1.0001,1.0001 0 0 0 0.396484,0.02148 1.0001,1.0001 0 0 0 0.09766,-0.01758 1.0001,1.0001 0 0 0 0.277344,-0.115234 1.0001,1.0001 0 0 0 0.08203,-0.05664 1.0001,1.0001 0 0 0 0.07813,-0.0625 1.0001,1.0001 0 0 0 0.185547,-0.234375 1.0001,1.0001 0 0 0 0.04687,-0.08789 1.0001,1.0001 0 0 0 0.03711,-0.09375 1.0001,1.0001 0 0 0 0.02734,-0.0957 A 1.0001,1.0001 0 0 0 19,12.400391 V 4.4980469 a 1.0001,1.0001 0 0 0 -0.470703,-0.8359375 1.0001,1.0001 0 0 0 -0.179688,-0.087891 1.0001,1.0001 0 0 0 -0.193359,-0.050781 1.0001,1.0001 0 0 0 -0.09961,-0.00977 1.0001,1.0001 0 0 0 -0.09961,0 z"
     id="path11"
     inkscape:connector-curvature="0" />
  <path
     style="color:#000000;font-style:normal;font-variant:normal;font-weight:normal;font-stretch:normal;font-size:medium;line-height:normal;font-family:sans-serif;font-variant-ligatures:normal;font-variant-position:normal;font-variant-caps:normal;font-variant-numeric:normal;font-variant-alternates:normal;font-feature-settings:normal;text-indent:0;text-align:start;text-decoration:none;text-decoration-line:none;text-decoration-style:solid;text-decoration-color:#000000;letter-spacing:normal;word-spacing:normal;text-transform:none;writing-mode:lr-tb;direction:ltr;text-orientation:mixed;dominant-baseline:auto;baseline-shift:baseline;text-anchor:start;white-space:normal;shape-padding:0;clip-rule:nonzero;display:inline;overflow:visible;visibility:visible;opacity:1;isolation:auto;mix-blend-mode:normal;color-interpolation:sRGB;color-interpolation-filters:linearRGB;solid-color:#000000;solid-opacity:1;vector-effect:non-scaling-stroke;fill:#000000;fill-opacity:1;fill-rule:nonzero;stroke:none;stroke-width:2;stroke-linecap:round;stroke-linejoin:round;stroke-miterlimit:4;stroke-dasharray:none;stroke-dashoffset:0;stroke-opacity:1;color-rendering:auto;image-rendering:auto;shape-rendering:auto;text-rendering:auto;enable-background:accumulate"
     d="M 17.984375,17 A 1.0001,1.0001 0 0 0 17,18 v 0.414062 1.087891 a 1.0001,1.0001 0 0 0 2,0 l 0.002,-1.5 a 1.0001,1.0001 0 0 0 -0.292969,-0.708984 h -0.002 A 1.0001,1.0001 0 0 0 17.984375,17 Z"
     id="path13"
     inkscape:connector-curvature="0" />
  <path
     style="color:#000000;font-style:normal;font-variant:normal;font-weight:normal;font-stretch:normal;font-size:medium;line-height:normal;font-family:sans-serif;font-variant-ligatures:normal;font-variant-position:normal;font-variant-caps:normal;font-variant-numeric:normal;font-variant-alternates:normal;font-feature-settings:normal;text-indent:0;text-align:start;text-decoration:none;text-decoration-line:none;text-decoration-style:solid;text-decoration-color:#000000;letter-spacing:normal;word-spacing:normal;text-transform:none;writing-mode:lr-tb;direction:ltr;text-orientation:mixed;dominant-baseline:auto;baseline-shift:baseline;text-anchor:start;white-space:normal;shape-padding:0;clip-rule:nonzero;display:inline;overflow:visible;visibility:visible;opacity:1;isolation:auto;mix-blend-mode:normal;color-interpolation:sRGB;color-interpolation-filters:linearRGB;solid-color:#000000;solid-opacity:1;vector-effect:non-scaling-stroke;fill:#000000;fill-opacity:1;fill-rule:nonzero;stroke:none;stroke-width:2;stroke-linecap:round;stroke-linejoin:round;stroke-miterlimit:3;stroke-dasharray:none;stroke-dashoffset:0;stroke-opacity:1;color-rendering:auto;image-rendering:auto;shape-rendering:auto;text-rendering:auto;enable-background:accumulate"
     d="m 13.773438,12.789062 a 1.0001,1.0001 0 0 0 -0.09961,0.0059 1.0001,1.0001 0 0 0 -0.09766,0.01758 1.0001,1.0001 0 0 0 -0.09766,0.02539 1.0001,1.0001 0 0 0 -0.0918,0.03516 1.0001,1.0001 0 0 0 -0.08984,0.04492 1.0001,1.0001 0 0 0 -0.40625,0.43164 1.0001,1.0001 0 0 0 -0.03906,0.0918 1.0001,1.0001 0 0 0 -0.06055,0.291016 1.0001,1.0001 0 0 0 -0.002,0.05664 v 5.712891 a 1.0001,1.0001 0 0 0 0.0059,0.09961 1.0001,1.0001 0 0 0 0.01758,0.09961 1.0001,1.0001 0 0 0 0.02539,0.0957 1.0001,1.0001 0 0 0 0.195312,0.345703 1.0001,1.0001 0 0 0 0.06836,0.07227 1.0001,1.0001 0 0 0 0.246094,0.169922 1.0001,1.0001 0 0 0 0.1875,0.07031 1.0001,1.0001 0 0 0 0.09766,0.02148 1.0001,1.0001 0 0 0 0.396485,-0.01758 1.0001,1.0001 0 0 0 0.189453,-0.06836 1.0001,1.0001 0 0 0 0.08789,-0.04687 1.0001,1.0001 0 0 0 0.08203,-0.05664 1.0001,1.0001 0 0 0 0.146484,-0.134765 1.0001,1.0001 0 0 0 0.228516,-0.439453 1.0001,1.0001 0 0 0 0.02539,-0.197266 1.0001,1.0001 0 0 0 0,-0.01367 v -5.712891 l -0.0098,0.0039 a 1.0001,1.0001 0 0 0 -0.28125,-0.708985 l -0.002,-0.002 a 1.0001,1.0001 0 0 0 -0.240235,-0.177734 1.0001,1.0001 0 0 0 -0.482421,-0.115235 z"
     id="path15"
     inkscape:connector-curvature="0" />
  <path
     style="color:#000000;font-style:normal;font-variant:normal;font-weight:normal;font-stretch:normal;font-size:medium;line-height:normal;font-family:sans-serif;font-variant-ligatures:normal;font-variant-position:normal;font-variant-caps:normal;font-variant-numeric:normal;font-variant-alternates:normal;font-feature-settings:normal;text-indent:0;text-align:start;text-decoration:none;text-decoration-line:none;text-decoration-style:solid;text-decoration-color:#000000;letter-spacing:normal;word-spacing:normal;text-transform:none;writing-mode:lr-tb;direction:ltr;text-orientation:mixed;dominant-baseline:auto;baseline-shift:baseline;text-anchor:start;white-space:normal;shape-padding:0;clip-rule:nonzero;display:inline;overflow:visible;visibility:visible;opacity:1;isolation:auto;mix-blend-mode:normal;color-interpolation:sRGB;color-interpolation-filters:linearRGB;solid-color:#000000;solid-opacity:1;vector-effect:non-scaling-stroke;fill:#000000;fill-opacity:1;fill-rule:nonzero;stroke:none;stroke-width:2;stroke-linecap:round;stroke-linejoin:round;stroke-miterlimit:4;stroke-dasharray:none;stroke-dashoffset:0;stroke-opacity:1;color-rendering:auto;image-rendering:auto;shape-rendering:auto;text-rendering:auto;enable-background:accumulate"
     d="M 0.99023438,-0.00976563 A 1.0001,1.0001 0 0 0 0.29296875,1.7070312 L 22.292969,23.707031 a 1.0001,1.0001 0 1 0 1.414062,-1.414062 L 1.7070312,0.29296875 A 1.0001,1.0001 0 0 0 0.99023438,-0.00976563 Z"
     id="line17"
     inkscape:connector-curvature="0" />
</svg>
