<?xml version="1.0" encoding="UTF-8" standalone="no"?>
<svg
   xmlns:dc="http://purl.org/dc/elements/1.1/"
   xmlns:cc="http://creativecommons.org/ns#"
   xmlns:rdf="http://www.w3.org/1999/02/22-rdf-syntax-ns#"
   xmlns:svg="http://www.w3.org/2000/svg"
   xmlns="http://www.w3.org/2000/svg"
   xmlns:sodipodi="http://sodipodi.sourceforge.net/DTD/sodipodi-0.dtd"
   xmlns:inkscape="http://www.inkscape.org/namespaces/inkscape"
   width="24"
   height="24"
   viewBox="0 0 24 24"
   fill="none"
   stroke="currentColor"
   stroke-width="2"
   stroke-linecap="round"
   stroke-linejoin="round"
   version="1.1"
   id="svg8"
   sodipodi:docname="database.svg"
   inkscape:version="0.92.4 5da689c313, 2019-01-14">
  <metadata
     id="metadata14">
    <rdf:RDF>
      <cc:Work
         rdf:about="">
        <dc:format>image/svg+xml</dc:format>
        <dc:type
           rdf:resource="http://purl.org/dc/dcmitype/StillImage" />
      </cc:Work>
    </rdf:RDF>
  </metadata>
  <defs
     id="defs12" />
  <sodipodi:namedview
     pagecolor="#ffffff"
     bordercolor="#666666"
     borderopacity="1"
     objecttolerance="10"
     gridtolerance="10"
     guidetolerance="10"
     inkscape:pageopacity="0"
     inkscape:pageshadow="2"
     inkscape:window-width="640"
     inkscape:window-height="480"
     id="namedview10"
     showgrid="false"
     inkscape:zoom="9.8333333"
     inkscape:cx="12"
     inkscape:cy="12"
     inkscape:window-x="0"
     inkscape:window-y="0"
     inkscape:window-maximized="0"
     inkscape:current-layer="svg8" />
  <path
     style="color:#000000;font-style:normal;font-variant:normal;font-weight:normal;font-stretch:normal;font-size:medium;line-height:normal;font-family:sans-serif;font-variant-ligatures:normal;font-variant-position:normal;font-variant-caps:normal;font-variant-numeric:normal;font-variant-alternates:normal;font-feature-settings:normal;text-indent:0;text-align:start;text-decoration:none;text-decoration-line:none;text-decoration-style:solid;text-decoration-color:#000000;letter-spacing:normal;word-spacing:normal;text-transform:none;writing-mode:lr-tb;direction:ltr;text-orientation:mixed;dominant-baseline:auto;baseline-shift:baseline;text-anchor:start;white-space:normal;shape-padding:0;clip-rule:nonzero;display:inline;overflow:visible;visibility:visible;opacity:1;isolation:auto;mix-blend-mode:normal;color-interpolation:sRGB;color-interpolation-filters:linearRGB;solid-color:#000000;solid-opacity:1;vector-effect:none;fill:#000000;fill-opacity:1;fill-rule:nonzero;stroke:none;stroke-width:2;stroke-linecap:butt;stroke-linejoin:miter;stroke-miterlimit:4;stroke-dasharray:none;stroke-dashoffset:0;stroke-opacity:1;color-rendering:auto;image-rendering:auto;shape-rendering:auto;text-rendering:auto;enable-background:accumulate"
     d="M 12,1 C 9.4246453,1 7.0937563,1.3385396 5.3203125,1.9296875 4.4335906,2.2252615 3.682419,2.578334 3.0878906,3.046875 2.4933622,3.515416 2,4.1804564 2,5 2,5.8195436 2.4933622,6.484584 3.0878906,6.953125 3.682419,7.421666 4.4335906,7.7747385 5.3203125,8.0703125 7.0937563,8.6614604 9.4246453,9 12,9 14.575355,9 16.906244,8.6614604 18.679688,8.0703125 19.566409,7.7747385 20.317581,7.421666 20.912109,6.953125 21.506638,6.484584 22,5.8195436 22,5 22,4.1804564 21.506638,3.515416 20.912109,3.046875 20.317581,2.578334 19.566409,2.2252615 18.679688,1.9296875 16.906244,1.3385396 14.575355,1 12,1 Z m 0,2 c 2.395208,0 4.56296,0.3334865 6.046875,0.828125 0.741958,0.2473192 1.310632,0.5397734 1.626953,0.7890625 C 19.990149,4.8664766 20,4.9911165 20,5 c 0,0.00888 -0.0099,0.1335234 -0.326172,0.3828125 C 19.357507,5.6321016 18.788833,5.9245558 18.046875,6.171875 16.56296,6.6665135 14.395208,7 12,7 9.604792,7 7.4370405,6.6665135 5.953125,6.171875 5.2111673,5.9245558 4.642493,5.6321016 4.3261719,5.3828125 4.0098507,5.1335234 4,5.0088835 4,5 4,4.9911165 4.0098507,4.8664766 4.3261719,4.6171875 4.642493,4.3678984 5.2111673,4.0754442 5.953125,3.828125 7.4370405,3.3334865 9.604792,3 12,3 Z"
     id="ellipse2"
     inkscape:connector-curvature="0" />
  <path
     style="color:#000000;font-style:normal;font-variant:normal;font-weight:normal;font-stretch:normal;font-size:medium;line-height:normal;font-family:sans-serif;font-variant-ligatures:normal;font-variant-position:normal;font-variant-caps:normal;font-variant-numeric:normal;font-variant-alternates:normal;font-feature-settings:normal;text-indent:0;text-align:start;text-decoration:none;text-decoration-line:none;text-decoration-style:solid;text-decoration-color:#000000;letter-spacing:normal;word-spacing:normal;text-transform:none;writing-mode:lr-tb;direction:ltr;text-orientation:mixed;dominant-baseline:auto;baseline-shift:baseline;text-anchor:start;white-space:normal;shape-padding:0;clip-rule:nonzero;display:inline;overflow:visible;visibility:visible;opacity:1;isolation:auto;mix-blend-mode:normal;color-interpolation:sRGB;color-interpolation-filters:linearRGB;solid-color:#000000;solid-opacity:1;vector-effect:none;fill:#000000;fill-opacity:1;fill-rule:nonzero;stroke:none;stroke-width:2;stroke-linecap:butt;stroke-linejoin:miter;stroke-miterlimit:4;stroke-dasharray:none;stroke-dashoffset:0;stroke-opacity:1;color-rendering:auto;image-rendering:auto;shape-rendering:auto;text-rendering:auto;enable-background:accumulate"
     d="M 2.984375,10.986328 A 1.0001,1.0001 0 0 0 2,12 c 0,0.816606 0.4894367,1.483545 1.0820312,1.953125 0.5925946,0.46958 1.3412104,0.821616 2.2265626,1.117187 C 7.0792981,15.661455 9.4106667,16 12,16 c 2.589333,0 4.920702,-0.338545 6.691406,-0.929688 0.885352,-0.295571 1.633968,-0.647607 2.226563,-1.117187 C 21.510563,13.483545 22,12.816606 22,12 a 1.0001,1.0001 0 1 0 -2,0 c 0,0.01339 -0.01056,0.136221 -0.324219,0.384766 -0.313655,0.248545 -0.877539,0.542134 -1.617187,0.789062 C 16.579298,13.667685 14.410667,14 12,14 9.5893333,14 7.4207019,13.667685 5.9414062,13.173828 5.2017584,12.9269 4.6378742,12.633311 4.3242188,12.384766 4.0105633,12.136221 4,12.013394 4,12 A 1.0001,1.0001 0 0 0 2.984375,10.986328 Z"
     id="path4"
     inkscape:connector-curvature="0" />
  <path
     style="color:#000000;font-style:normal;font-variant:normal;font-weight:normal;font-stretch:normal;font-size:medium;line-height:normal;font-family:sans-serif;font-variant-ligatures:normal;font-variant-position:normal;font-variant-caps:normal;font-variant-numeric:normal;font-variant-alternates:normal;font-feature-settings:normal;text-indent:0;text-align:start;text-decoration:none;text-decoration-line:none;text-decoration-style:solid;text-decoration-color:#000000;letter-spacing:normal;word-spacing:normal;text-transform:none;writing-mode:lr-tb;direction:ltr;text-orientation:mixed;dominant-baseline:auto;baseline-shift:baseline;text-anchor:start;white-space:normal;shape-padding:0;clip-rule:nonzero;display:inline;overflow:visible;visibility:visible;opacity:1;isolation:auto;mix-blend-mode:normal;color-interpolation:sRGB;color-interpolation-filters:linearRGB;solid-color:#000000;solid-opacity:1;vector-effect:none;fill:#000000;fill-opacity:1;fill-rule:nonzero;stroke:none;stroke-width:2;stroke-linecap:butt;stroke-linejoin:miter;stroke-miterlimit:4;stroke-dasharray:none;stroke-dashoffset:0;stroke-opacity:1;color-rendering:auto;image-rendering:auto;shape-rendering:auto;text-rendering:auto;enable-background:accumulate"
     d="M 2.984375,3.9863281 A 1.0001,1.0001 0 0 0 2,5 v 14 c 0,0.816606 0.4894367,1.483545 1.0820312,1.953125 0.5925946,0.46958 1.3412104,0.821616 2.2265626,1.117187 C 7.0792981,22.661455 9.4106667,23 12,23 c 2.589333,0 4.920702,-0.338545 6.691406,-0.929688 0.885352,-0.295571 1.633968,-0.647607 2.226563,-1.117187 C 21.510563,20.483545 22,19.816606 22,19 V 5 a 1.0001,1.0001 0 1 0 -2,0 v 14 c 0,0.01339 -0.01056,0.136221 -0.324219,0.384766 -0.313655,0.248545 -0.877539,0.542134 -1.617187,0.789062 C 16.579298,20.667685 14.410667,21 12,21 9.5893333,21 7.4207019,20.667685 5.9414062,20.173828 5.2017584,19.9269 4.6378742,19.633311 4.3242188,19.384766 4.0105633,19.136221 4,19.013394 4,19 V 5 A 1.0001,1.0001 0 0 0 2.984375,3.9863281 Z"
     id="path6"
     inkscape:connector-curvature="0" />
</svg>
