<svg width="24" height="24" viewBox="0 0 24 24" fill="none" xmlns="http://www.w3.org/2000/svg">
<path fill-rule="evenodd" clip-rule="evenodd" d="M12 3C7.02944 3 3 7.02944 3 12C3 16.9706 7.02944 21 12 21C16.9706 21 21 16.9706 21 12C21 7.02944 16.9706 3 12 3ZM1 12C1 5.92487 5.92487 1 12 1C18.0751 1 23 5.92487 23 12C23 18.0751 18.0751 23 12 23C5.92487 23 1 18.0751 1 12Z" fill="black"/>
<path fill-rule="evenodd" clip-rule="evenodd" d="M12 13C11.1957 13 10.75 13.5552 10.75 14C10.75 14.4448 11.1957 15 12 15C12.8043 15 13.25 14.4448 13.25 14C13.25 13.5552 12.8043 13 12 13ZM8.75 14C8.75 12.2357 10.3191 11 12 11C13.6809 11 15.25 12.2357 15.25 14C15.25 15.7643 13.6809 17 12 17C10.3191 17 8.75 15.7643 8.75 14Z" fill="black"/>
<path fill-rule="evenodd" clip-rule="evenodd" d="M12 9C11.4477 9 11 9.44772 11 10C11 10.5523 11.4477 11 12 11C12.5523 11 13 10.5523 13 10C13 9.44772 12.5523 9 12 9ZM9 10C9 8.34315 10.3431 7 12 7C13.6569 7 15 8.34315 15 10C15 11.6569 13.6569 13 12 13C10.3431 13 9 11.6569 9 10Z" fill="black"/>
</svg>
