<svg width="24" height="24" viewBox="0 0 24 24" fill="none" xmlns="http://www.w3.org/2000/svg">
<path opacity="0.98" fill-rule="evenodd" clip-rule="evenodd" d="M12 3C7.02944 3 3 7.02944 3 12C3 16.9706 7.02944 21 12 21C16.9706 21 21 16.9706 21 12C21 7.02944 16.9706 3 12 3ZM1 12C1 5.92487 5.92487 1 12 1C18.0751 1 23 5.92487 23 12C23 18.0751 18.0751 23 12 23C5.92487 23 1 18.0751 1 12Z" fill="black"/>
<path fill-rule="evenodd" clip-rule="evenodd" d="M11.7663 10.0078C12.435 9.96306 13.1025 10.1112 13.6894 10.4347C14.2764 10.7582 14.7581 11.2434 15.0773 11.8327C15.3966 12.4219 15.54 13.0905 15.4904 13.7588C15.4409 14.4272 15.2005 15.0672 14.7978 15.603C14.3951 16.1387 13.8471 16.5475 13.2188 16.7809C12.5906 17.0143 11.9086 17.0624 11.2538 16.9195C10.599 16.7766 9.99902 16.4488 9.52512 15.9749C9.1346 15.5844 9.1346 14.9512 9.52512 14.5607C9.91565 14.1701 10.5488 14.1701 10.9393 14.5607C11.1424 14.7638 11.3996 14.9043 11.6802 14.9655C11.9608 15.0268 12.2531 15.0061 12.5224 14.9061C12.7916 14.8061 13.0265 14.6309 13.199 14.4013C13.3716 14.1717 13.4747 13.8974 13.4959 13.6109C13.5171 13.3245 13.4557 13.038 13.3189 12.7854C13.182 12.5329 12.9756 12.325 12.724 12.1863C12.4725 12.0477 12.1864 11.9842 11.8998 12.0033C11.6133 12.0225 11.3382 12.1236 11.1074 12.2945C10.6635 12.6232 10.0373 12.5298 9.70863 12.0859C9.37998 11.6421 9.47337 11.0158 9.91722 10.6872C10.4558 10.2884 11.0976 10.0526 11.7663 10.0078Z" fill="black"/>
<path fill-rule="evenodd" clip-rule="evenodd" d="M9.5 8C9.5 7.44772 9.94772 7 10.5 7H14.5C15.0523 7 15.5 7.44772 15.5 8C15.5 8.55228 15.0523 9 14.5 9H11.5V11.5C11.5 12.0523 11.0523 12.5 10.5 12.5C9.94772 12.5 9.5 12.0523 9.5 11.5V8Z" fill="black"/>
</svg>
