<svg width="24" height="24" viewBox="0 0 24 24" fill="none" xmlns="http://www.w3.org/2000/svg">
<path fill-rule="evenodd" clip-rule="evenodd" d="M12 3C7.02944 3 3 7.02944 3 12C3 16.9706 7.02944 21 12 21C16.9706 21 21 16.9706 21 12C21 7.02944 16.9706 3 12 3ZM1 12C1 5.92487 5.92487 1 12 1C18.0751 1 23 5.92487 23 12C23 18.0751 18.0751 23 12 23C5.92487 23 1 18.0751 1 12Z" fill="black"/>
<path fill-rule="evenodd" clip-rule="evenodd" d="M11.9173 7.09123C12.4192 7.32169 12.6392 7.91539 12.4088 8.41729L10.5596 12.4444H12V11.5C12 10.9477 12.4477 10.5 13 10.5C13.5523 10.5 14 10.9477 14 11.5V12.4444H15C15.5523 12.4444 16 12.8922 16 13.4444C16 13.9967 15.5523 14.4444 15 14.4444H14V16C14 16.5523 13.5523 17 13 17C12.4477 17 12 16.5523 12 16V14.4444H9C8.65932 14.4444 8.34208 14.271 8.15819 13.9842C7.9743 13.6974 7.94906 13.3368 8.09123 13.0272L10.5912 7.58271C10.8217 7.08081 11.4154 6.86076 11.9173 7.09123Z" fill="black"/>
</svg>
