<?xml version="1.0" encoding="UTF-8" standalone="no"?>
<svg
   xmlns:dc="http://purl.org/dc/elements/1.1/"
   xmlns:cc="http://creativecommons.org/ns#"
   xmlns:rdf="http://www.w3.org/1999/02/22-rdf-syntax-ns#"
   xmlns:svg="http://www.w3.org/2000/svg"
   xmlns="http://www.w3.org/2000/svg"
   xmlns:sodipodi="http://sodipodi.sourceforge.net/DTD/sodipodi-0.dtd"
   xmlns:inkscape="http://www.inkscape.org/namespaces/inkscape"
   width="24"
   height="24"
   viewBox="0 0 24 24"
   fill="none"
   stroke="currentColor"
   stroke-width="2"
   stroke-linecap="round"
   stroke-linejoin="round"
   version="1.1"
   id="svg4"
   sodipodi:docname="key.svg"
   inkscape:version="0.92.4 5da689c313, 2019-01-14">
  <metadata
     id="metadata10">
    <rdf:RDF>
      <cc:Work
         rdf:about="">
        <dc:format>image/svg+xml</dc:format>
        <dc:type
           rdf:resource="http://purl.org/dc/dcmitype/StillImage" />
      </cc:Work>
    </rdf:RDF>
  </metadata>
  <defs
     id="defs8" />
  <sodipodi:namedview
     pagecolor="#ffffff"
     bordercolor="#666666"
     borderopacity="1"
     objecttolerance="10"
     gridtolerance="10"
     guidetolerance="10"
     inkscape:pageopacity="0"
     inkscape:pageshadow="2"
     inkscape:window-width="640"
     inkscape:window-height="480"
     id="namedview6"
     showgrid="false"
     inkscape:zoom="9.8333333"
     inkscape:cx="12"
     inkscape:cy="12"
     inkscape:window-x="0"
     inkscape:window-y="0"
     inkscape:window-maximized="0"
     inkscape:current-layer="svg4" />
  <path
     style="color:#000000;font-style:normal;font-variant:normal;font-weight:normal;font-stretch:normal;font-size:medium;line-height:normal;font-family:sans-serif;font-variant-ligatures:normal;font-variant-position:normal;font-variant-caps:normal;font-variant-numeric:normal;font-variant-alternates:normal;font-feature-settings:normal;text-indent:0;text-align:start;text-decoration:none;text-decoration-line:none;text-decoration-style:solid;text-decoration-color:#000000;letter-spacing:normal;word-spacing:normal;text-transform:none;writing-mode:lr-tb;direction:ltr;text-orientation:mixed;dominant-baseline:auto;baseline-shift:baseline;text-anchor:start;white-space:normal;shape-padding:0;clip-rule:nonzero;display:inline;overflow:visible;visibility:visible;opacity:1;isolation:auto;mix-blend-mode:normal;color-interpolation:sRGB;color-interpolation-filters:linearRGB;solid-color:#000000;solid-opacity:1;vector-effect:none;fill:#000000;fill-opacity:1;fill-rule:nonzero;stroke:none;stroke-width:2;stroke-linecap:butt;stroke-linejoin:miter;stroke-miterlimit:4;stroke-dasharray:none;stroke-dashoffset:0;stroke-opacity:1;color-rendering:auto;image-rendering:auto;shape-rendering:auto;text-rendering:auto;enable-background:accumulate"
     d="m 20.980469,0.99023438 a 1.0001,1.0001 0 0 0 -0.6875,0.30273442 L 18.410156,3.1757812 A 1.0001,1.0001 0 0 0 18.179688,3.40625 L 14.910156,6.6757812 A 1.0001,1.0001 0 0 0 14.679688,6.90625 l -3.441407,3.441406 C 9.9543111,9.4186435 8.5601155,8.8982254 7.2167969,8.9863281 5.5820967,9.0935413 4.0899173,9.853442 2.9726562,10.970703 c -1.117261,1.117261 -1.8771618,2.611394 -1.98437495,4.246094 -0.10721319,1.6347 0.47995765,3.390507 1.90429685,4.865234 a 1.0001,1.0001 0 0 0 0.00781,0.0078 c 1.4722801,1.492142 3.2504406,2.120671 4.9101563,2.027344 1.6597156,-0.09333 3.1783951,-0.861989 4.3125001,-1.996094 1.134105,-1.134105 1.902766,-2.652785 1.996094,-4.3125 0.07669,-1.363928 -0.476261,-2.772215 -1.453125,-4.060547 L 15.5,8.9140625 17.792969,11.207031 a 1.0001,1.0001 0 0 0 1.414062,0 l 3.5,-3.4999998 a 1.0001,1.0001 0 0 0 0,-1.4140624 L 20.414062,4 21.707031,2.7070312 A 1.0001,1.0001 0 0 0 20.980469,0.99023438 Z M 19,5.4140625 20.585938,7 18.5,9.0859375 16.914062,7.5 Z M 7.3476562,10.982422 c 1.0779719,-0.0707 2.1991653,0.27333 3.3027348,1.320312 a 1.0001,1.0001 0 0 0 0.07226,0.07031 c 1.095535,1.104279 1.461642,2.232996 1.400391,3.322265 -0.06219,1.105894 -0.594923,2.19258 -1.414063,3.011719 C 9.8898452,19.52617 8.8031587,20.058908 7.6972656,20.121094 6.5932677,20.183173 5.4485783,19.820302 4.3300781,18.689453 3.2537818,17.573393 2.9128464,16.438267 2.984375,15.347656 3.0559807,14.25587 3.58187,13.189614 4.3867188,12.384766 5.1915675,11.579917 6.2558704,11.054028 7.3476562,10.982422 Z"
     id="path2"
     inkscape:connector-curvature="0" />
</svg>
