<svg width="24" height="24" viewBox="0 0 24 24" fill="none" xmlns="http://www.w3.org/2000/svg">
<path fill-rule="evenodd" clip-rule="evenodd" d="M12 3C7.02944 3 3 7.02944 3 12C3 16.9706 7.02944 21 12 21C16.9706 21 21 16.9706 21 12C21 7.02944 16.9706 3 12 3ZM1 12C1 5.92487 5.92487 1 12 1C18.0751 1 23 5.92487 23 12C23 18.0751 18.0751 23 12 23C5.92487 23 1 18.0751 1 12Z" fill="black"/>
<path fill-rule="evenodd" clip-rule="evenodd" d="M7.96881 16.8473C7.50089 16.5539 7.35938 15.9367 7.65275 15.4688L8.58854 13.9762C8.13026 13.9222 7.6752 13.7761 7.25021 13.5307C5.57639 12.5643 5.00289 10.424 5.96927 8.75021C6.93566 7.07639 9.07597 6.50289 10.7498 7.46927C12.4236 8.43566 12.9971 10.576 12.0307 12.2498C11.9905 12.3194 11.9483 12.3872 11.9041 12.453L9.34725 16.5312C9.05388 16.9991 8.43673 17.1406 7.96881 16.8473ZM10.3066 11.236C10.7096 10.5208 10.4624 9.61276 9.74979 9.20132C9.03255 8.78723 8.11542 9.03297 7.70132 9.75021C7.28723 10.4674 7.53297 11.3846 8.25021 11.7987C8.93049 12.1914 9.79058 11.9906 10.2307 11.3569L10.3066 11.236Z" fill="black"/>
<path fill-rule="evenodd" clip-rule="evenodd" d="M16 10C16.5523 10 17 10.4477 17 11V14C17 14.5523 16.5523 15 16 15C15.4477 15 15 14.5523 15 14V11C15 10.4477 15.4477 10 16 10Z" fill="black"/>
<path fill-rule="evenodd" clip-rule="evenodd" d="M13.5 12.5C13.5 11.9477 13.9477 11.5 14.5 11.5H17.5C18.0523 11.5 18.5 11.9477 18.5 12.5C18.5 13.0523 18.0523 13.5 17.5 13.5H14.5C13.9477 13.5 13.5 13.0523 13.5 12.5Z" fill="black"/>
</svg>
