<svg width="24" height="24" viewBox="0 0 24 24" fill="none" xmlns="http://www.w3.org/2000/svg">
<path fill-rule="evenodd" clip-rule="evenodd" d="M12 3C7.02944 3 3 7.02944 3 12C3 16.9706 7.02944 21 12 21C16.9706 21 21 16.9706 21 12C21 7.02944 16.9706 3 12 3ZM1 12C1 5.92487 5.92487 1 12 1C18.0751 1 23 5.92487 23 12C23 18.0751 18.0751 23 12 23C5.92487 23 1 18.0751 1 12Z" fill="black"/>
<path fill-rule="evenodd" clip-rule="evenodd" d="M10.9688 16.8472C10.5009 16.5539 10.3594 15.9367 10.6527 15.4688L11.5885 13.9762C11.1303 13.9222 10.6752 13.7761 10.2502 13.5307C8.57639 12.5643 8.00289 10.424 8.96927 8.75021C9.93566 7.07639 12.076 6.50289 13.7498 7.46927C15.4236 8.43565 15.9971 10.576 15.0307 12.2498C14.9905 12.3194 14.9483 12.3872 14.9041 12.453L12.3473 16.5312C12.0539 16.9991 11.4367 17.1406 10.9688 16.8472ZM13.3066 11.236C13.7096 10.5208 13.4624 9.61276 12.7498 9.20132C12.0326 8.78722 11.1154 9.03297 10.7013 9.75021C10.2872 10.4674 10.533 11.3846 11.2502 11.7987C11.9305 12.1914 12.7906 11.9906 13.2307 11.3569L13.3066 11.236Z" fill="black"/>
</svg>
