<svg width="24" height="24" viewBox="0 0 24 24" fill="none" xmlns="http://www.w3.org/2000/svg">
<path fill-rule="evenodd" clip-rule="evenodd" d="M12 3C7.02944 3 3 7.02944 3 12C3 16.9706 7.02944 21 12 21C16.9706 21 21 16.9706 21 12C21 7.02944 16.9706 3 12 3ZM1 12C1 5.92487 5.92487 1 12 1C18.0751 1 23 5.92487 23 12C23 18.0751 18.0751 23 12 23C5.92487 23 1 18.0751 1 12Z" fill="black"/>
<path fill-rule="evenodd" clip-rule="evenodd" d="M12.9472 7.10557C13.286 7.27496 13.5 7.62123 13.5 8V16C13.5 16.5523 13.0523 17 12.5 17C11.9477 17 11.5 16.5523 11.5 16V10L11.1 10.3C10.6582 10.6314 10.0314 10.5418 9.7 10.1C9.36863 9.65817 9.45817 9.03137 9.9 8.7L11.9 7.2C12.203 6.97274 12.6084 6.93618 12.9472 7.10557Z" fill="black"/>
</svg>
