<?xml version="1.0" encoding="UTF-8" standalone="no"?>
<!-- Generator: Gravit.io -->

<svg
   xmlns:dc="http://purl.org/dc/elements/1.1/"
   xmlns:cc="http://creativecommons.org/ns#"
   xmlns:rdf="http://www.w3.org/1999/02/22-rdf-syntax-ns#"
   xmlns:svg="http://www.w3.org/2000/svg"
   xmlns="http://www.w3.org/2000/svg"
   xmlns:sodipodi="http://sodipodi.sourceforge.net/DTD/sodipodi-0.dtd"
   xmlns:inkscape="http://www.inkscape.org/namespaces/inkscape"
   style="isolation:isolate"
   viewBox="0 0 24 24"
   width="24"
   height="24"
   version="1.1"
   id="svg15"
   sodipodi:docname="rain.svg"
   inkscape:version="0.92.4 5da689c313, 2019-01-14">
  <metadata
     id="metadata19">
    <rdf:RDF>
      <cc:Work
         rdf:about="">
        <dc:format>image/svg+xml</dc:format>
        <dc:type
           rdf:resource="http://purl.org/dc/dcmitype/StillImage" />
      </cc:Work>
    </rdf:RDF>
  </metadata>
  <sodipodi:namedview
     pagecolor="#ffffff"
     bordercolor="#666666"
     borderopacity="1"
     objecttolerance="10"
     gridtolerance="10"
     guidetolerance="10"
     inkscape:pageopacity="0"
     inkscape:pageshadow="2"
     inkscape:window-width="640"
     inkscape:window-height="480"
     id="namedview17"
     showgrid="false"
     inkscape:zoom="9.8333333"
     inkscape:cx="12"
     inkscape:cy="12"
     inkscape:window-x="0"
     inkscape:window-y="0"
     inkscape:window-maximized="0"
     inkscape:current-layer="svg15" />
  <defs
     id="defs5">
    <clipPath
       id="_clipPath_2Cei71EkLOpZE4bk1P109SxbS4bE4K14">
      <rect
         width="24"
         height="24"
         id="rect2" />
    </clipPath>
  </defs>
  <path
     style="color:#000000;font-style:normal;font-variant:normal;font-weight:normal;font-stretch:normal;font-size:medium;line-height:normal;font-family:sans-serif;font-variant-ligatures:normal;font-variant-position:normal;font-variant-caps:normal;font-variant-numeric:normal;font-variant-alternates:normal;font-feature-settings:normal;text-indent:0;text-align:start;text-decoration:none;text-decoration-line:none;text-decoration-style:solid;text-decoration-color:#000000;letter-spacing:normal;word-spacing:normal;text-transform:none;writing-mode:lr-tb;direction:ltr;text-orientation:mixed;dominant-baseline:auto;baseline-shift:baseline;text-anchor:start;white-space:normal;shape-padding:0;clip-rule:nonzero;display:inline;overflow:visible;visibility:visible;opacity:1;isolation:auto;mix-blend-mode:normal;color-interpolation:sRGB;color-interpolation-filters:linearRGB;solid-color:#000000;solid-opacity:1;vector-effect:non-scaling-stroke;fill:#000000;fill-opacity:1;fill-rule:nonzero;stroke:none;stroke-width:2;stroke-linecap:round;stroke-linejoin:round;stroke-miterlimit:4;stroke-dasharray:none;stroke-dashoffset:0;stroke-opacity:1;color-rendering:auto;image-rendering:auto;shape-rendering:auto;text-rendering:auto;enable-background:accumulate"
     d="M 9.5058594,0.01367188 C 5.5994995,-0.20659468 1.9906757,2.130448 0.59375,5.7851562 0.19823294,6.8200177 0.00450153,7.8954989 0,8.9589844 -0.00337404,9.7215182 0.08986558,10.477832 0.27539062,11.210938 A 1.0002261,1.0002261 0 1 0 2.2148438,10.720703 C 2.0703688,10.149808 1.997374,9.5622161 2,8.96875 2.0034985,8.1422355 2.1544077,7.3071386 2.4628906,6.5 3.5519649,3.6507082 6.3488911,1.8399853 9.3945312,2.0117188 12.439239,2.183449 15.014159,4.296273 15.777344,7.25 A 1.0001,1.0001 0 0 0 16.746094,8 h 1.259765 c 1.896955,0.00331 3.52275,1.3248164 3.910157,3.181641 0.388459,1.858827 -0.571368,3.720778 -2.310547,4.482421 a 1.0001,1.0001 0 1 0 0.800781,1.832032 C 23.00107,16.359737 24.452587,13.54661 23.873047,10.773438 23.294587,8.0009007 20.840017,6.0035926 18.007812,6 a 1.0001,1.0001 0 0 0 -0.002,0 h -0.61914 C 16.174674,2.6308734 13.131602,0.21817421 9.5058594,0.01367188 Z"
     id="path7"
     inkscape:connector-curvature="0" />
  <path
     style="color:#000000;font-style:normal;font-variant:normal;font-weight:normal;font-stretch:normal;font-size:medium;line-height:normal;font-family:sans-serif;font-variant-ligatures:normal;font-variant-position:normal;font-variant-caps:normal;font-variant-numeric:normal;font-variant-alternates:normal;font-feature-settings:normal;text-indent:0;text-align:start;text-decoration:none;text-decoration-line:none;text-decoration-style:solid;text-decoration-color:#000000;letter-spacing:normal;word-spacing:normal;text-transform:none;writing-mode:lr-tb;direction:ltr;text-orientation:mixed;dominant-baseline:auto;baseline-shift:baseline;text-anchor:start;white-space:normal;shape-padding:0;clip-rule:nonzero;display:inline;overflow:visible;visibility:visible;opacity:1;isolation:auto;mix-blend-mode:normal;color-interpolation:sRGB;color-interpolation-filters:linearRGB;solid-color:#000000;solid-opacity:1;vector-effect:non-scaling-stroke;fill:#000000;fill-opacity:1;fill-rule:nonzero;stroke:none;stroke-width:2;stroke-linecap:round;stroke-linejoin:round;stroke-miterlimit:4;stroke-dasharray:none;stroke-dashoffset:0;stroke-opacity:1;color-rendering:auto;image-rendering:auto;shape-rendering:auto;text-rendering:auto;enable-background:accumulate"
     d="m 7.109375,10 a 1.0001,1.0001 0 0 0 -0.6933594,0.292969 l -1.765625,1.767578 C 3.6512293,13.059708 3.3517104,14.56965 3.8925781,15.875 c 0.5404972,1.304456 1.8205305,2.162109 3.234375,2.162109 1.413242,0 2.6919247,-0.857653 3.2324219,-2.162109 0.540868,-1.30535 0.239396,-2.815292 -0.7597656,-3.814453 L 7.8300781,10.292969 A 1.0001,1.0001 0 0 0 7.109375,10 Z M 7.125,12.414062 8.1855469,13.474609 c 0.4308386,0.430839 0.5593042,1.072116 0.3261719,1.634766 -0.2335029,0.563544 -0.7760077,0.927734 -1.3847657,0.927734 -0.6101554,0 -1.1532159,-0.36419 -1.3867187,-0.927734 -0.2331323,-0.56265 -0.1066199,-1.203927 0.3242187,-1.634766 a 1.0001,1.0001 0 0 0 0.00195,0 z"
     id="path9"
     inkscape:connector-curvature="0" />
  <path
     style="color:#000000;font-style:normal;font-variant:normal;font-weight:normal;font-stretch:normal;font-size:medium;line-height:normal;font-family:sans-serif;font-variant-ligatures:normal;font-variant-position:normal;font-variant-caps:normal;font-variant-numeric:normal;font-variant-alternates:normal;font-feature-settings:normal;text-indent:0;text-align:start;text-decoration:none;text-decoration-line:none;text-decoration-style:solid;text-decoration-color:#000000;letter-spacing:normal;word-spacing:normal;text-transform:none;writing-mode:lr-tb;direction:ltr;text-orientation:mixed;dominant-baseline:auto;baseline-shift:baseline;text-anchor:start;white-space:normal;shape-padding:0;clip-rule:nonzero;display:inline;overflow:visible;visibility:visible;opacity:1;isolation:auto;mix-blend-mode:normal;color-interpolation:sRGB;color-interpolation-filters:linearRGB;solid-color:#000000;solid-opacity:1;vector-effect:non-scaling-stroke;fill:#000000;fill-opacity:1;fill-rule:nonzero;stroke:none;stroke-width:2;stroke-linecap:round;stroke-linejoin:round;stroke-miterlimit:4;stroke-dasharray:none;stroke-dashoffset:0;stroke-opacity:1;color-rendering:auto;image-rendering:auto;shape-rendering:auto;text-rendering:auto;enable-background:accumulate"
     d="m 14.109375,15 a 1.0001,1.0001 0 0 0 -0.693359,0.292969 L 11.650391,17.0625 c -0.998832,0.998832 -1.298584,2.507383 -0.757813,3.8125 0.5404,1.305618 1.821189,2.162109 3.234375,2.162109 1.412583,0 2.692022,-0.856491 3.232422,-2.162109 0.540771,-1.305117 0.239066,-2.813668 -0.759766,-3.8125 L 14.832031,15.292969 A 1.0001,1.0001 0 0 0 14.109375,15 Z m 0.01563,2.416016 1.060547,1.060546 c 0.431168,0.431169 0.559401,1.06993 0.326172,1.632813 a 1.0001,1.0001 0 0 0 0,0.002 c -0.2336,0.564382 -0.775348,0.925781 -1.384766,0.925781 -0.610814,0 -1.153119,-0.361399 -1.386719,-0.925781 a 1.0001,1.0001 0 0 0 0,-0.002 c -0.233229,-0.562883 -0.106949,-1.201644 0.324219,-1.632813 a 1.0001,1.0001 0 0 0 0.002,-0.002 z"
     id="path11"
     inkscape:connector-curvature="0" />
</svg>
