<svg width="24" height="24" viewBox="0 0 24 24" fill="none" xmlns="http://www.w3.org/2000/svg">
<path fill-rule="evenodd" clip-rule="evenodd" d="M12 3C7.02944 3 3 7.02944 3 12C3 16.9706 7.02944 21 12 21C16.9706 21 21 16.9706 21 12C21 7.02944 16.9706 3 12 3ZM1 12C1 5.92487 5.92487 1 12 1C18.0751 1 23 5.92487 23 12C23 18.0751 18.0751 23 12 23C5.92487 23 1 18.0751 1 12Z" fill="black"/>
<path fill-rule="evenodd" clip-rule="evenodd" d="M8.5 8C8.5 7.44772 8.94772 7 9.5 7H14.5C14.8603 7 15.1927 7.19379 15.3702 7.5073C15.5477 7.82074 15.5429 8.20539 15.3576 8.51429L15.3576 8.51433C15.3576 8.51439 15.3575 8.51444 15.3575 8.5145L15.3575 8.51452L15.3564 8.51633L15.3511 8.52529L15.3282 8.5639C15.3078 8.59864 15.2772 8.65104 15.2379 8.7194C15.1592 8.85617 15.0457 9.05655 14.9091 9.30698C14.6355 9.80867 14.2712 10.5069 13.908 11.2941C13.1569 12.9214 12.5 14.742 12.5 16C12.5 16.5523 12.0523 17 11.5 17C10.9477 17 10.5 16.5523 10.5 16C10.5 14.258 11.3431 12.0786 12.092 10.4559C12.3391 9.92074 12.5857 9.42577 12.8069 9H9.5C8.94772 9 8.5 8.55228 8.5 8Z" fill="black"/>
</svg>
