<svg width="24" height="24" viewBox="0 0 24 24" fill="none" xmlns="http://www.w3.org/2000/svg">
<path fill-rule="evenodd" clip-rule="evenodd" d="M12 3C7.02944 3 3 7.02944 3 12C3 16.9706 7.02944 21 12 21C16.9706 21 21 16.9706 21 12C21 7.02944 16.9706 3 12 3ZM1 12C1 5.92487 5.92487 1 12 1C18.0751 1 23 5.92487 23 12C23 18.0751 18.0751 23 12 23C5.92487 23 1 18.0751 1 12Z" fill="black"/>
<path fill-rule="evenodd" clip-rule="evenodd" d="M13.0312 7.15275C13.4991 7.44612 13.6406 8.06327 13.3473 8.53119L12.4115 10.0238C12.8697 10.0778 13.3248 10.2239 13.7498 10.4693C15.4236 11.4357 15.9971 13.576 15.0307 15.2498C14.0643 16.9236 11.924 17.4971 10.2502 16.5307C8.57638 15.5643 8.00289 13.424 8.96927 11.7502C9.00949 11.6806 9.05173 11.6128 9.09589 11.547L11.6527 7.46881C11.9461 7.00088 12.5633 6.85938 13.0312 7.15275ZM10.6934 12.764C10.2904 13.4792 10.5376 14.3872 11.2502 14.7987C11.9674 15.2128 12.8846 14.967 13.2987 14.2498C13.7128 13.5325 13.467 12.6154 12.7498 12.2013C12.0695 11.8086 11.2094 12.0094 10.7693 12.6431L10.6934 12.764Z" fill="black"/>
</svg>
