<svg width="24" height="24" viewBox="0 0 24 24" fill="none" xmlns="http://www.w3.org/2000/svg">
<path fill-rule="evenodd" clip-rule="evenodd" d="M12 3C7.02944 3 3 7.02944 3 12C3 16.9706 7.02944 21 12 21C16.9706 21 21 16.9706 21 12C21 7.02944 16.9706 3 12 3ZM1 12C1 5.92487 5.92487 1 12 1C18.0751 1 23 5.92487 23 12C23 18.0751 18.0751 23 12 23C5.92487 23 1 18.0751 1 12Z" fill="black"/>
<path fill-rule="evenodd" clip-rule="evenodd" d="M8.5 8.5C9.05228 8.5 9.5 8.94772 9.5 9.5V14.5C9.5 15.0523 9.05228 15.5 8.5 15.5C7.94772 15.5 7.5 15.0523 7.5 14.5V9.5C7.5 8.94772 7.94772 8.5 8.5 8.5Z" fill="black"/>
<path fill-rule="evenodd" clip-rule="evenodd" d="M15.4179 8.09149C15.7727 8.25467 16 8.60947 16 9V15C16 15.3905 15.7727 15.7453 15.4179 15.9085C15.0631 16.0717 14.6457 16.0134 14.3492 15.7593L10.8492 12.7593C10.6276 12.5693 10.5 12.2919 10.5 12C10.5 11.7081 10.6276 11.4307 10.8492 11.2407L14.3492 8.24074C14.6457 7.98659 15.0631 7.9283 15.4179 8.09149ZM13.0366 12L14 12.8258V11.1742L13.0366 12Z" fill="black"/>
</svg>
