<svg width="24" height="24" viewBox="0 0 24 24" fill="none" xmlns="http://www.w3.org/2000/svg">
<path fill-rule="evenodd" clip-rule="evenodd" d="M16 7.66667C16.5523 7.66667 17 8.11438 17 8.66667V15.3333C17 15.8856 16.5523 16.3333 16 16.3333C15.4477 16.3333 15 15.8856 15 15.3333V8.66667C15 8.11438 15.4477 7.66667 16 7.66667Z" fill="black"/>
<path fill-rule="evenodd" clip-rule="evenodd" d="M7.58214 7.09149C7.22734 7.25467 7 7.60947 7 8V16C7 16.3905 7.22734 16.7453 7.58214 16.9085C7.93694 17.0717 8.35428 17.0134 8.65079 16.7593L13.3175 12.7593C13.5391 12.5693 13.6667 12.2919 13.6667 12C13.6667 11.7081 13.5391 11.4307 13.3175 11.2407L8.65079 7.24074C8.35428 6.98659 7.93694 6.9283 7.58214 7.09149ZM11.1301 12L9 13.8258V10.1742L11.1301 12Z" fill="black"/>
</svg>
