<svg width="24" height="24" viewBox="0 0 24 24" fill="none" xmlns="http://www.w3.org/2000/svg">
<path fill-rule="evenodd" clip-rule="evenodd" d="M8 7.66667C8.55228 7.66667 9 8.11438 9 8.66667V15.3333C9 15.8856 8.55228 16.3333 8 16.3333C7.44772 16.3333 7 15.8856 7 15.3333V8.66667C7 8.11438 7.44772 7.66667 8 7.66667Z" fill="black"/>
<path fill-rule="evenodd" clip-rule="evenodd" d="M16.0845 7.09149C16.4393 7.25467 16.6667 7.60947 16.6667 8V16C16.6667 16.3905 16.4393 16.7453 16.0845 16.9085C15.7297 17.0717 15.3124 17.0134 15.0159 16.7593L10.3492 12.7593C10.1276 12.5693 10 12.2919 10 12C10 11.7081 10.1276 11.4307 10.3492 11.2407L15.0159 7.24074C15.3124 6.98659 15.7297 6.9283 16.0845 7.09149ZM12.5366 12L14.6667 13.8258V10.1742L12.5366 12Z" fill="black"/>
</svg>
