<svg width="24" height="24" viewBox="0 0 24 24" fill="none" xmlns="http://www.w3.org/2000/svg">
<path fill-rule="evenodd" clip-rule="evenodd" d="M12 3C7.02944 3 3 7.02944 3 12C3 16.9706 7.02944 21 12 21C16.9706 21 21 16.9706 21 12C21 7.02944 16.9706 3 12 3ZM1 12C1 5.92487 5.92487 1 12 1C18.0751 1 23 5.92487 23 12C23 18.0751 18.0751 23 12 23C5.92487 23 1 18.0751 1 12Z" fill="black"/>
<path fill-rule="evenodd" clip-rule="evenodd" d="M15.5 8.5C16.0523 8.5 16.5 8.94772 16.5 9.5V14.5C16.5 15.0523 16.0523 15.5 15.5 15.5C14.9477 15.5 14.5 15.0523 14.5 14.5V9.5C14.5 8.94772 14.9477 8.5 15.5 8.5Z" fill="black"/>
<path fill-rule="evenodd" clip-rule="evenodd" d="M8.58215 8.09149C8.22735 8.25467 8 8.60947 8 9V15C8 15.3905 8.22735 15.7453 8.58215 15.9085C8.93695 16.0717 9.35428 16.0134 9.6508 15.7593L13.1508 12.7593C13.3724 12.5693 13.5 12.2919 13.5 12C13.5 11.7081 13.3724 11.4307 13.1508 11.2407L9.6508 8.24074C9.35428 7.98659 8.93695 7.9283 8.58215 8.09149ZM10.9634 12L10 12.8258V11.1742L10.9634 12Z" fill="black"/>
</svg>
