<?xml version="1.0" encoding="UTF-8" standalone="no"?><!-- Generator: Gravit.io --><svg xmlns="http://www.w3.org/2000/svg" xmlns:xlink="http://www.w3.org/1999/xlink" style="isolation:isolate" viewBox="0 0 24 24" width="24pt" height="24pt"><defs><clipPath id="_clipPath_f4sTHQsaNkbl1iEF2NTVAWyCjIpMDKYt"><rect width="24" height="24"/></clipPath></defs><g clip-path="url(#_clipPath_f4sTHQsaNkbl1iEF2NTVAWyCjIpMDKYt)"><path d=" M 11 1 C 11 0.73 11.11 0.48 11.29 0.29 C 11.48 0.11 11.73 0 12 0 C 12.27 0 12.52 0.11 12.71 0.29 C 12.89 0.48 13 0.73 13 1 L 13 12 C 13 12.27 12.89 12.52 12.71 12.71 C 12.52 12.89 12.27 13 12 13 C 11.73 13 11.48 12.89 11.29 12.71 C 11.11 12.52 11 12.27 11 12 L 11 1 Z " fill="rgb(0,0,0)"/><path d=" M 12.71 5.29 C 12.89 5.48 13 5.73 13 6 C 13 6.27 12.89 6.52 12.71 6.71 C 12.52 6.89 12.27 7 12 7 C 11.73 7 11.48 6.89 11.29 6.71 L 8.29 3.71 C 8.11 3.52 8 3.27 8 3 C 8 2.73 8.11 2.48 8.29 2.29 C 8.48 2.11 8.73 2 9 2 C 9.27 2 9.52 2.11 9.71 2.29 L 12.71 5.29 Z " fill="rgb(0,0,0)"/><path d=" M 12.71 6.71 C 12.52 6.89 12.27 7 12 7 C 11.73 7 11.48 6.89 11.29 6.71 C 11.11 6.52 11 6.27 11 6 C 11 5.73 11.11 5.48 11.29 5.29 L 14.29 2.29 C 14.48 2.11 14.73 2 15 2 C 15.27 2 15.52 2.11 15.71 2.29 C 15.89 2.48 16 2.73 16 3 C 16 3.27 15.89 3.52 15.71 3.71 L 12.71 6.71 Z " fill="rgb(0,0,0)"/><path d=" M 1.97 7.36 C 1.74 7.23 1.58 7.01 1.51 6.76 C 1.44 6.5 1.48 6.23 1.61 6 C 1.74 5.77 1.96 5.6 2.21 5.53 C 2.47 5.46 2.74 5.5 2.97 5.63 L 12.5 11.13 C 12.73 11.26 12.9 11.48 12.97 11.74 C 13.03 12 13 12.27 12.87 12.5 C 12.73 12.73 12.51 12.9 12.26 12.96 C 12 13.03 11.73 13 11.5 12.86 L 1.97 7.36 Z " fill="rgb(0,0,0)"/><path d=" M 2.45 9.13 L 6.55 8.03 C 6.8 7.96 7.07 8 7.3 8.13 C 7.53 8.26 7.7 8.48 7.77 8.74 C 7.84 9 7.8 9.27 7.67 9.5 C 7.54 9.73 7.32 9.9 7.06 9.96 L 2.96 11.06 C 2.71 11.13 2.44 11.09 2.21 10.96 C 1.98 10.83 1.81 10.61 1.74 10.35 C 1.67 10.1 1.71 9.83 1.84 9.6 C 1.97 9.37 2.19 9.2 2.45 9.13 Z " fill="rgb(0,0,0)"/><path d=" M 7.77 8.74 C 7.84 9 7.8 9.27 7.67 9.5 C 7.54 9.73 7.32 9.9 7.06 9.96 C 6.81 10.03 6.53 10 6.3 9.86 C 6.07 9.73 5.91 9.51 5.84 9.26 L 4.74 5.16 C 4.67 4.9 4.71 4.63 4.84 4.4 C 4.97 4.17 5.19 4 5.45 3.93 C 5.7 3.87 5.98 3.9 6.21 4.03 C 6.44 4.17 6.6 4.39 6.67 4.64 L 7.77 8.74 Z " fill="rgb(0,0,0)"/><path d=" M 2.97 18.37 C 2.74 18.5 2.47 18.53 2.21 18.47 C 1.96 18.4 1.74 18.23 1.61 18 C 1.48 17.77 1.44 17.5 1.51 17.24 C 1.58 16.99 1.74 16.77 1.97 16.63 L 11.5 11.13 C 11.73 11 12 10.97 12.26 11.03 C 12.51 11.1 12.73 11.27 12.87 11.5 C 13 11.73 13.03 12 12.97 12.26 C 12.9 12.51 12.73 12.73 12.5 12.87 L 2.97 18.37 Z " fill="rgb(0,0,0)"/><path d=" M 4.74 18.84 L 5.84 14.74 C 5.91 14.49 6.07 14.27 6.3 14.13 C 6.53 14 6.81 13.97 7.06 14.03 C 7.32 14.1 7.54 14.27 7.67 14.5 C 7.8 14.73 7.84 15 7.77 15.26 L 6.67 19.36 C 6.6 19.61 6.44 19.83 6.21 19.96 C 5.98 20.1 5.7 20.13 5.45 20.06 C 5.19 20 4.97 19.83 4.84 19.6 C 4.71 19.37 4.67 19.1 4.74 18.84 Z " fill="rgb(0,0,0)"/><path d=" M 6.55 15.97 L 2.45 14.87 C 2.19 14.8 1.97 14.63 1.84 14.4 C 1.71 14.17 1.67 13.9 1.74 13.64 C 1.81 13.39 1.98 13.17 2.21 13.04 C 2.44 12.9 2.71 12.87 2.96 12.94 L 7.06 14.03 C 7.32 14.1 7.54 14.27 7.67 14.5 C 7.8 14.73 7.84 15 7.77 15.26 C 7.7 15.51 7.53 15.73 7.3 15.87 C 7.07 16 6.8 16.03 6.55 15.97 Z " fill="rgb(0,0,0)"/><path d=" M 13 23 C 13 23.27 12.9 23.52 12.71 23.71 C 12.52 23.9 12.27 24 12 24 C 11.74 24 11.48 23.9 11.29 23.71 C 11.11 23.52 11 23.27 11 23 L 11 12 C 11 11.74 11.11 11.48 11.29 11.29 C 11.48 11.11 11.74 11 12 11 C 12.27 11 12.52 11.11 12.71 11.29 C 12.9 11.48 13 11.74 13 12 L 13 23 Z " fill="rgb(0,0,0)"/><path d=" M 14.29 21.71 L 11.29 18.71 C 11.11 18.52 11 18.27 11 18 C 11 17.74 11.11 17.48 11.29 17.29 C 11.48 17.11 11.74 17 12 17 C 12.27 17 12.52 17.11 12.71 17.29 L 15.71 20.29 C 15.9 20.48 16 20.74 16 21 C 16 21.27 15.9 21.52 15.71 21.71 C 15.52 21.9 15.27 22 15 22 C 14.74 22 14.48 21.9 14.29 21.71 Z " fill="rgb(0,0,0)"/><path d=" M 9.71 21.71 C 9.52 21.9 9.27 22 9 22 C 8.74 22 8.48 21.9 8.29 21.71 C 8.11 21.52 8 21.27 8 21 C 8 20.74 8.11 20.48 8.29 20.29 L 11.29 17.29 C 11.48 17.11 11.74 17 12 17 C 12.27 17 12.52 17.11 12.71 17.29 C 12.9 17.48 13 17.74 13 18 C 13 18.27 12.9 18.52 12.71 18.71 L 9.71 21.71 Z " fill="rgb(0,0,0)"/><path d=" M 21.03 18.37 L 11.5 12.87 C 11.27 12.73 11.11 12.51 11.04 12.26 C 10.97 12 11 11.73 11.14 11.5 C 11.27 11.27 11.49 11.1 11.74 11.03 C 12 10.97 12.27 11 12.5 11.13 L 22.03 16.63 C 22.26 16.77 22.43 16.99 22.5 17.24 C 22.56 17.5 22.53 17.77 22.4 18 C 22.26 18.23 22.04 18.4 21.79 18.47 C 21.53 18.53 21.26 18.5 21.03 18.37 Z " fill="rgb(0,0,0)"/><path d=" M 21.56 14.87 L 17.46 15.97 C 17.2 16.03 16.93 16 16.7 15.87 C 16.47 15.73 16.3 15.51 16.23 15.26 C 16.16 15 16.2 14.73 16.33 14.5 C 16.47 14.27 16.68 14.1 16.94 14.03 L 21.04 12.94 C 21.29 12.87 21.57 12.9 21.8 13.04 C 22.03 13.17 22.19 13.39 22.26 13.64 C 22.33 13.9 22.3 14.17 22.16 14.4 C 22.03 14.63 21.81 14.8 21.56 14.87 Z " fill="rgb(0,0,0)"/><path d=" M 16.23 15.26 C 16.16 15 16.2 14.73 16.33 14.5 C 16.47 14.27 16.68 14.1 16.94 14.03 C 17.2 13.97 17.47 14 17.7 14.13 C 17.93 14.27 18.1 14.49 18.17 14.74 L 19.26 18.84 C 19.33 19.1 19.3 19.37 19.16 19.6 C 19.03 19.83 18.81 20 18.56 20.06 C 18.3 20.13 18.03 20.1 17.8 19.96 C 17.57 19.83 17.4 19.61 17.33 19.36 L 16.23 15.26 Z " fill="rgb(0,0,0)"/><path d=" M 21.03 5.63 C 21.26 5.5 21.53 5.46 21.79 5.53 C 22.04 5.6 22.26 5.77 22.4 6 C 22.53 6.23 22.56 6.5 22.5 6.76 C 22.43 7.01 22.26 7.23 22.03 7.36 L 12.5 12.86 C 12.27 13 12 13.03 11.74 12.96 C 11.49 12.9 11.27 12.73 11.14 12.5 C 11 12.27 10.97 12 11.04 11.74 C 11.11 11.48 11.27 11.26 11.5 11.13 L 21.03 5.63 Z " fill="rgb(0,0,0)"/><path d=" M 18.17 9.26 C 18.1 9.51 17.93 9.73 17.7 9.86 C 17.47 10 17.2 10.03 16.94 9.96 C 16.68 9.9 16.47 9.73 16.33 9.5 C 16.2 9.27 16.16 9 16.23 8.74 L 17.33 4.64 C 17.4 4.39 17.57 4.17 17.8 4.03 C 18.03 3.9 18.3 3.87 18.56 3.93 C 18.81 4 19.03 4.17 19.16 4.4 C 19.3 4.63 19.33 4.9 19.26 5.16 L 18.17 9.26 Z " fill="rgb(0,0,0)"/><path d=" M 21.04 11.06 L 16.94 9.96 C 16.68 9.9 16.47 9.73 16.33 9.5 C 16.2 9.27 16.16 9 16.23 8.74 C 16.3 8.48 16.47 8.26 16.7 8.13 C 16.93 8 17.2 7.96 17.46 8.03 L 21.56 9.13 C 21.81 9.2 22.03 9.37 22.16 9.6 C 22.3 9.83 22.33 10.1 22.26 10.35 C 22.19 10.61 22.03 10.83 21.8 10.96 C 21.57 11.09 21.29 11.13 21.04 11.06 Z " fill="rgb(0,0,0)"/></g></svg>