<?xml version="1.0" encoding="UTF-8" standalone="no"?>
<svg
   xmlns:dc="http://purl.org/dc/elements/1.1/"
   xmlns:cc="http://creativecommons.org/ns#"
   xmlns:rdf="http://www.w3.org/1999/02/22-rdf-syntax-ns#"
   xmlns:svg="http://www.w3.org/2000/svg"
   xmlns="http://www.w3.org/2000/svg"
   xmlns:sodipodi="http://sodipodi.sourceforge.net/DTD/sodipodi-0.dtd"
   xmlns:inkscape="http://www.inkscape.org/namespaces/inkscape"
   width="24"
   height="24"
   viewBox="0 0 24 24"
   fill="none"
   stroke="currentColor"
   stroke-width="2"
   stroke-linecap="round"
   stroke-linejoin="round"
   version="1.1"
   id="svg4"
   sodipodi:docname="tool.svg"
   inkscape:version="0.92.4 5da689c313, 2019-01-14">
  <metadata
     id="metadata10">
    <rdf:RDF>
      <cc:Work
         rdf:about="">
        <dc:format>image/svg+xml</dc:format>
        <dc:type
           rdf:resource="http://purl.org/dc/dcmitype/StillImage" />
      </cc:Work>
    </rdf:RDF>
  </metadata>
  <defs
     id="defs8" />
  <sodipodi:namedview
     pagecolor="#ffffff"
     bordercolor="#666666"
     borderopacity="1"
     objecttolerance="10"
     gridtolerance="10"
     guidetolerance="10"
     inkscape:pageopacity="0"
     inkscape:pageshadow="2"
     inkscape:window-width="931"
     inkscape:window-height="986"
     id="namedview6"
     showgrid="false"
     inkscape:zoom="9.8333333"
     inkscape:cx="12"
     inkscape:cy="12"
     inkscape:window-x="965"
     inkscape:window-y="70"
     inkscape:window-maximized="0"
     inkscape:current-layer="svg4" />
  <path
     style="color:#000000;font-style:normal;font-variant:normal;font-weight:normal;font-stretch:normal;font-size:medium;line-height:normal;font-family:sans-serif;font-variant-ligatures:normal;font-variant-position:normal;font-variant-caps:normal;font-variant-numeric:normal;font-variant-alternates:normal;font-feature-settings:normal;text-indent:0;text-align:start;text-decoration:none;text-decoration-line:none;text-decoration-style:solid;text-decoration-color:#000000;letter-spacing:normal;word-spacing:normal;text-transform:none;writing-mode:lr-tb;direction:ltr;text-orientation:mixed;dominant-baseline:auto;baseline-shift:baseline;text-anchor:start;white-space:normal;shape-padding:0;clip-rule:nonzero;display:inline;overflow:visible;visibility:visible;opacity:1;isolation:auto;mix-blend-mode:normal;color-interpolation:sRGB;color-interpolation-filters:linearRGB;solid-color:#000000;solid-opacity:1;vector-effect:none;fill:#000000;fill-opacity:1;fill-rule:nonzero;stroke:none;stroke-width:2;stroke-linecap:butt;stroke-linejoin:miter;stroke-miterlimit:4;stroke-dasharray:none;stroke-dashoffset:0;stroke-opacity:1;color-rendering:auto;image-rendering:auto;shape-rendering:auto;text-rendering:auto;enable-background:accumulate"
     d="m 16.703125,1.0214844 c -2.165142,-0.22886219 -4.228926,0.598067 -5.65625,2.0253906 -1.7462013,1.7462013 -2.5098774,4.4459396 -1.625,7.117187 l -6.5097656,6.509766 c -0.6767766,0.676777 -0.994715,1.552739 -0.9472656,2.359375 0.047449,0.806636 0.4151308,1.522553 0.9472656,2.054688 0.5321347,0.532134 1.2480516,0.899816 2.0546875,0.947265 0.8066359,0.04745 1.6825984,-0.270489 2.359375,-0.947265 l 6.5097661,-6.509766 c 2.671247,0.884877 5.370986,0.121201 7.117187,-1.625 1.903098,-1.903098 2.738719,-4.9388612 1.427734,-7.8359375 A 1.0001,1.0001 0 0 0 20.763672,4.8222656 L 17,8.5859375 15.414062,7 l 0.0039,-0.00195 3.759765,-3.7617188 A 1.0001,1.0001 0 0 0 18.882812,1.6191406 C 18.158543,1.2913945 17.424839,1.0977718 16.703125,1.0214844 Z m -0.230469,1.9765625 c 0.02935,0.00326 0.0604,0.021577 0.08984,0.025391 l -2.560547,2.5585937 -0.0098,0.011719 a 1.0001,1.0001 0 0 0 -0.0059,0.00586 c -0.754499,0.7697435 -0.754499,2.0310377 0,2.8007812 a 1.0001,1.0001 0 0 0 0.0059,0.00586 l 1.601562,1.601562 a 1.0001,1.0001 0 0 0 0.0059,0.0059 c 0.769744,0.754499 2.031038,0.754499 2.800782,0 a 1.0001,1.0001 0 0 0 0.0059,-0.0059 L 20.976562,7.4375 c 0.205622,1.5872113 -0.385368,3.049431 -1.4375,4.101562 -1.376821,1.376822 -3.452867,1.990091 -5.597656,1.019532 a 1.0001,1.0001 0 0 0 -1.11914,0.205078 L 5.9121094,19.673828 C 5.5888864,19.997051 5.3418014,20.05216 5.0859375,20.037109 4.8300736,20.022059 4.5440371,19.891693 4.3261719,19.673828 4.1083066,19.455963 3.9779415,19.169926 3.9628906,18.914062 3.9478398,18.658199 4.0029489,18.411114 4.3261719,18.087891 l 6.9101561,-6.910157 a 1.0001,1.0001 0 0 0 0.205078,-1.11914 C 10.470847,7.9138053 11.084116,5.8377593 12.460938,4.4609375 13.493554,3.4283212 14.91961,2.8256791 16.472656,2.9980469 Z"
     id="path2"
     inkscape:connector-curvature="0" />
</svg>
