<?xml version="1.0" encoding="UTF-8" standalone="no"?>
<!-- Generator: Gravit.io -->

<svg
   xmlns:dc="http://purl.org/dc/elements/1.1/"
   xmlns:cc="http://creativecommons.org/ns#"
   xmlns:rdf="http://www.w3.org/1999/02/22-rdf-syntax-ns#"
   xmlns:svg="http://www.w3.org/2000/svg"
   xmlns="http://www.w3.org/2000/svg"
   xmlns:sodipodi="http://sodipodi.sourceforge.net/DTD/sodipodi-0.dtd"
   xmlns:inkscape="http://www.inkscape.org/namespaces/inkscape"
   style="isolation:isolate"
   viewBox="0 0 24 24"
   width="24"
   height="24"
   version="1.1"
   id="svg17"
   sodipodi:docname="tstorm.svg"
   inkscape:version="0.92.4 5da689c313, 2019-01-14">
  <metadata
     id="metadata21">
    <rdf:RDF>
      <cc:Work
         rdf:about="">
        <dc:format>image/svg+xml</dc:format>
        <dc:type
           rdf:resource="http://purl.org/dc/dcmitype/StillImage" />
      </cc:Work>
    </rdf:RDF>
  </metadata>
  <sodipodi:namedview
     pagecolor="#ffffff"
     bordercolor="#666666"
     borderopacity="1"
     objecttolerance="10"
     gridtolerance="10"
     guidetolerance="10"
     inkscape:pageopacity="0"
     inkscape:pageshadow="2"
     inkscape:window-width="640"
     inkscape:window-height="480"
     id="namedview19"
     showgrid="false"
     inkscape:zoom="9.8333333"
     inkscape:cx="12"
     inkscape:cy="12"
     inkscape:window-x="0"
     inkscape:window-y="0"
     inkscape:window-maximized="0"
     inkscape:current-layer="svg17" />
  <defs
     id="defs5">
    <clipPath
       id="_clipPath_BMNu8xR0Rp3zWLxuHCRskW8mJYpi85GG">
      <rect
         width="24"
         height="24"
         id="rect2" />
    </clipPath>
  </defs>
  <path
     style="color:#000000;font-style:normal;font-variant:normal;font-weight:normal;font-stretch:normal;font-size:medium;line-height:normal;font-family:sans-serif;font-variant-ligatures:normal;font-variant-position:normal;font-variant-caps:normal;font-variant-numeric:normal;font-variant-alternates:normal;font-feature-settings:normal;text-indent:0;text-align:start;text-decoration:none;text-decoration-line:none;text-decoration-style:solid;text-decoration-color:#000000;letter-spacing:normal;word-spacing:normal;text-transform:none;writing-mode:lr-tb;direction:ltr;text-orientation:mixed;dominant-baseline:auto;baseline-shift:baseline;text-anchor:start;white-space:normal;shape-padding:0;clip-rule:nonzero;display:inline;overflow:visible;visibility:visible;opacity:1;isolation:auto;mix-blend-mode:normal;color-interpolation:sRGB;color-interpolation-filters:linearRGB;solid-color:#000000;solid-opacity:1;vector-effect:non-scaling-stroke;fill:#000000;fill-opacity:1;fill-rule:nonzero;stroke:none;stroke-width:2;stroke-linecap:round;stroke-linejoin:round;stroke-miterlimit:4;stroke-dasharray:none;stroke-dashoffset:0;stroke-opacity:1;color-rendering:auto;image-rendering:auto;shape-rendering:auto;text-rendering:auto;enable-background:accumulate"
     d="M 9.5058594,0.01367188 C 5.5994995,-0.20659468 1.9906757,2.130448 0.59375,5.7851562 0.19823294,6.8200177 0.00450153,7.8954989 0,8.9589844 -0.00337404,9.7215182 0.08986558,10.477832 0.27539062,11.210938 A 1.0002261,1.0002261 0 1 0 2.2148438,10.720703 C 2.0703688,10.149808 1.997374,9.5622161 2,8.96875 2.0034985,8.1422355 2.1544077,7.3071386 2.4628906,6.5 3.5519649,3.6507082 6.3488911,1.8399853 9.3945312,2.0117188 12.439239,2.183449 15.014159,4.296273 15.777344,7.25 A 1.0001,1.0001 0 0 0 16.746094,8 h 1.259765 c 1.896955,0.00331 3.52275,1.3248164 3.910157,3.181641 0.388459,1.858827 -0.571368,3.720778 -2.310547,4.482421 a 1.0001,1.0001 0 1 0 0.800781,1.832032 C 23.00107,16.359737 24.452587,13.54661 23.873047,10.773438 23.294587,8.0009007 20.840017,6.0035926 18.007812,6 a 1.0001,1.0001 0 0 0 -0.002,0 h -0.61914 C 16.174674,2.6308734 13.131602,0.21817421 9.5058594,0.01367188 Z"
     id="path7"
     inkscape:connector-curvature="0" />
  <path
     style="color:#000000;font-style:normal;font-variant:normal;font-weight:normal;font-stretch:normal;font-size:medium;line-height:normal;font-family:sans-serif;font-variant-ligatures:normal;font-variant-position:normal;font-variant-caps:normal;font-variant-numeric:normal;font-variant-alternates:normal;font-feature-settings:normal;text-indent:0;text-align:start;text-decoration:none;text-decoration-line:none;text-decoration-style:solid;text-decoration-color:#000000;letter-spacing:normal;word-spacing:normal;text-transform:none;writing-mode:lr-tb;direction:ltr;text-orientation:mixed;dominant-baseline:auto;baseline-shift:baseline;text-anchor:start;white-space:normal;shape-padding:0;clip-rule:nonzero;display:inline;overflow:visible;visibility:visible;opacity:1;isolation:auto;mix-blend-mode:normal;color-interpolation:sRGB;color-interpolation-filters:linearRGB;solid-color:#000000;solid-opacity:1;vector-effect:non-scaling-stroke;fill:#000000;fill-opacity:1;fill-rule:nonzero;stroke:none;stroke-width:2;stroke-linecap:round;stroke-linejoin:round;stroke-miterlimit:4;stroke-dasharray:none;stroke-dashoffset:0;stroke-opacity:1;color-rendering:auto;image-rendering:auto;shape-rendering:auto;text-rendering:auto;enable-background:accumulate"
     d="M 6.5234375,9.9882812 A 1.0001,1.0001 0 0 0 5.7089844,10.445312 l -2.6660156,4 A 1.0001,1.0001 0 0 0 3.8769531,16 h 2.1308594 l -1.6308594,2.445312 a 1.0001,1.0001 0 1 0 1.6640625,1.109376 l 2.6679688,-4 A 1.0001,1.0001 0 0 0 7.8769531,14 H 5.7460938 L 7.375,11.554688 A 1.0001,1.0001 0 0 0 6.5234375,9.9882812 Z"
     id="path9"
     inkscape:connector-curvature="0" />
  <path
     style="color:#000000;font-style:normal;font-variant:normal;font-weight:normal;font-stretch:normal;font-size:medium;line-height:normal;font-family:sans-serif;font-variant-ligatures:normal;font-variant-position:normal;font-variant-caps:normal;font-variant-numeric:normal;font-variant-alternates:normal;font-feature-settings:normal;text-indent:0;text-align:start;text-decoration:none;text-decoration-line:none;text-decoration-style:solid;text-decoration-color:#000000;letter-spacing:normal;word-spacing:normal;text-transform:none;writing-mode:lr-tb;direction:ltr;text-orientation:mixed;dominant-baseline:auto;baseline-shift:baseline;text-anchor:start;white-space:normal;shape-padding:0;clip-rule:nonzero;display:inline;overflow:visible;visibility:visible;opacity:1;isolation:auto;mix-blend-mode:normal;color-interpolation:sRGB;color-interpolation-filters:linearRGB;solid-color:#000000;solid-opacity:1;vector-effect:non-scaling-stroke;fill:#000000;fill-opacity:1;fill-rule:nonzero;stroke:none;stroke-width:2;stroke-linecap:round;stroke-linejoin:round;stroke-miterlimit:4;stroke-dasharray:none;stroke-dashoffset:0;stroke-opacity:1;color-rendering:auto;image-rendering:auto;shape-rendering:auto;text-rendering:auto;enable-background:accumulate"
     d="m 12.859375,10 a 1.0001,1.0001 0 0 0 -0.691406,0.292969 l -1.060547,1.060547 c -0.713052,0.713051 -0.926101,1.793434 -0.541016,2.724609 0.385759,0.931141 1.30157,1.542969 2.310547,1.542969 1.007685,0 1.920248,-0.611361 2.306641,-1.541016 0.38729,-0.932488 0.171486,-2.01406 -0.541016,-2.726562 L 13.582031,10.292969 A 1.0001,1.0001 0 0 0 12.859375,10 Z m 0.01563,2.414062 0.353516,0.353516 c 0.145498,0.145498 0.188085,0.35541 0.109375,0.544922 -0.07824,0.188859 -0.257578,0.308594 -0.460938,0.308594 -0.205023,0 -0.384649,-0.119735 -0.462891,-0.308594 -0.07781,-0.190299 -0.03703,-0.400472 0.107422,-0.544922 z"
     id="path11"
     inkscape:connector-curvature="0" />
  <path
     style="color:#000000;font-style:normal;font-variant:normal;font-weight:normal;font-stretch:normal;font-size:medium;line-height:normal;font-family:sans-serif;font-variant-ligatures:normal;font-variant-position:normal;font-variant-caps:normal;font-variant-numeric:normal;font-variant-alternates:normal;font-feature-settings:normal;text-indent:0;text-align:start;text-decoration:none;text-decoration-line:none;text-decoration-style:solid;text-decoration-color:#000000;letter-spacing:normal;word-spacing:normal;text-transform:none;writing-mode:lr-tb;direction:ltr;text-orientation:mixed;dominant-baseline:auto;baseline-shift:baseline;text-anchor:start;white-space:normal;shape-padding:0;clip-rule:nonzero;display:inline;overflow:visible;visibility:visible;opacity:1;isolation:auto;mix-blend-mode:normal;color-interpolation:sRGB;color-interpolation-filters:linearRGB;solid-color:#000000;solid-opacity:1;vector-effect:non-scaling-stroke;fill:#000000;fill-opacity:1;fill-rule:nonzero;stroke:none;stroke-width:2;stroke-linecap:round;stroke-linejoin:round;stroke-miterlimit:4;stroke-dasharray:none;stroke-dashoffset:0;stroke-opacity:1;color-rendering:auto;image-rendering:auto;shape-rendering:auto;text-rendering:auto;enable-background:accumulate"
     d="m 15.859375,16 a 1.0001,1.0001 0 0 0 -0.691406,0.292969 l -1.060547,1.060547 c -0.713052,0.713051 -0.926101,1.793434 -0.541016,2.724609 0.385596,0.932411 1.302668,1.542969 2.310547,1.542969 1.006586,0 1.920407,-0.610096 2.306641,-1.541016 0.38729,-0.932488 0.171486,-2.01406 -0.541016,-2.726562 L 16.582031,16.292969 A 1.0001,1.0001 0 0 0 15.859375,16 Z m 0.01563,2.414062 0.353516,0.353516 c 0.145498,0.145498 0.188085,0.35541 0.109375,0.544922 a 1.0001,1.0001 0 0 0 -0.002,0.002 c -0.07841,0.189589 -0.254525,0.306641 -0.458985,0.306641 -0.206121,0 -0.384486,-0.117052 -0.462891,-0.306641 -0.07891,-0.190824 -0.03753,-0.401926 0.107422,-0.546875 z"
     id="path13"
     inkscape:connector-curvature="0" />
</svg>
