<svg width="24" height="24" viewBox="0 0 24 24" fill="none" xmlns="http://www.w3.org/2000/svg">
<path fill-rule="evenodd" clip-rule="evenodd" d="M12 3C7.02944 3 3 7.02944 3 12C3 16.9706 7.02944 21 12 21C16.9706 21 21 16.9706 21 12C21 7.02944 16.9706 3 12 3ZM1 12C1 5.92487 5.92487 1 12 1C18.0751 1 23 5.92487 23 12C23 18.0751 18.0751 23 12 23C5.92487 23 1 18.0751 1 12Z" fill="black"/>
<path fill-rule="evenodd" clip-rule="evenodd" d="M14.5 9C15.0523 9 15.5 9.44772 15.5 10C15.5 11.0652 15.0439 11.8923 14.4483 12.5277C13.8756 13.1386 13.1429 13.6055 12.5145 13.9825C12.3678 14.0705 12.2281 14.153 12.0952 14.2315C11.9353 14.326 11.7853 14.4146 11.6448 14.5H14.5C15.0523 14.5 15.5 14.9477 15.5 15.5C15.5 16.0523 15.0523 16.5 14.5 16.5H9.5C8.94772 16.5 8.5 16.0523 8.5 15.5C8.5 14.5336 9.11632 13.8701 9.65655 13.4379C10.0922 13.0893 10.6481 12.7619 11.1463 12.4685C11.2633 12.3996 11.3772 12.3325 11.4855 12.2675C12.1071 11.8945 12.6244 11.5489 12.9892 11.1598C13.3311 10.7952 13.5 10.4348 13.5 10C13.5 9.44772 13.9477 9 14.5 9Z" fill="black"/>
<path fill-rule="evenodd" clip-rule="evenodd" d="M10.1713 7.01576C10.8818 6.58033 11.7244 6.41272 12.5475 6.54309C13.3706 6.67346 14.1202 7.09324 14.6614 7.72693C15.2026 8.36062 15.5 9.16664 15.5 10C15.5 10.5523 15.0523 11 14.5 11C13.9477 11 13.5 10.5523 13.5 10C13.5 9.64285 13.3726 9.29741 13.1406 9.02583C12.9087 8.75425 12.5874 8.57434 12.2346 8.51847C11.8819 8.4626 11.5208 8.53443 11.2162 8.72104C10.9117 8.90765 10.6838 9.1968 10.5734 9.53647C10.4027 10.0617 9.83859 10.3492 9.31334 10.1785C8.78808 10.0078 8.50063 9.44369 8.6713 8.91844C8.92882 8.12587 9.46069 7.45119 10.1713 7.01576Z" fill="black"/>
</svg>
