<?xml version="1.0" encoding="UTF-8" standalone="no"?>
<!-- Generator: Gravit.io -->

<svg
   xmlns:dc="http://purl.org/dc/elements/1.1/"
   xmlns:cc="http://creativecommons.org/ns#"
   xmlns:rdf="http://www.w3.org/1999/02/22-rdf-syntax-ns#"
   xmlns:svg="http://www.w3.org/2000/svg"
   xmlns="http://www.w3.org/2000/svg"
   xmlns:sodipodi="http://sodipodi.sourceforge.net/DTD/sodipodi-0.dtd"
   xmlns:inkscape="http://www.inkscape.org/namespaces/inkscape"
   style="isolation:isolate"
   viewBox="0 0 24 24"
   width="24"
   height="24"
   version="1.1"
   id="svg15"
   sodipodi:docname="unknown-triangle.svg"
   inkscape:version="0.92.4 5da689c313, 2019-01-14">
  <metadata
     id="metadata19">
    <rdf:RDF>
      <cc:Work
         rdf:about="">
        <dc:format>image/svg+xml</dc:format>
        <dc:type
           rdf:resource="http://purl.org/dc/dcmitype/StillImage" />
      </cc:Work>
    </rdf:RDF>
  </metadata>
  <sodipodi:namedview
     pagecolor="#ffffff"
     bordercolor="#666666"
     borderopacity="1"
     objecttolerance="10"
     gridtolerance="10"
     guidetolerance="10"
     inkscape:pageopacity="0"
     inkscape:pageshadow="2"
     inkscape:window-width="640"
     inkscape:window-height="480"
     id="namedview17"
     showgrid="false"
     inkscape:zoom="9.8333333"
     inkscape:cx="12"
     inkscape:cy="12"
     inkscape:window-x="0"
     inkscape:window-y="0"
     inkscape:window-maximized="0"
     inkscape:current-layer="svg15" />
  <defs
     id="defs5">
    <clipPath
       id="_clipPath_EhhOfh97XwFPQb6ayDxCuRUjfAIGWvxU">
      <rect
         width="24"
         height="24"
         id="rect2" />
    </clipPath>
  </defs>
  <path
     style="color:#000000;font-style:normal;font-variant:normal;font-weight:normal;font-stretch:normal;font-size:medium;line-height:normal;font-family:sans-serif;font-variant-ligatures:normal;font-variant-position:normal;font-variant-caps:normal;font-variant-numeric:normal;font-variant-alternates:normal;font-feature-settings:normal;text-indent:0;text-align:start;text-decoration:none;text-decoration-line:none;text-decoration-style:solid;text-decoration-color:#000000;letter-spacing:normal;word-spacing:normal;text-transform:none;writing-mode:lr-tb;direction:ltr;text-orientation:mixed;dominant-baseline:auto;baseline-shift:baseline;text-anchor:start;white-space:normal;shape-padding:0;clip-rule:nonzero;display:inline;overflow:visible;visibility:visible;opacity:1;isolation:auto;mix-blend-mode:normal;color-interpolation:sRGB;color-interpolation-filters:linearRGB;solid-color:#000000;solid-opacity:1;vector-effect:non-scaling-stroke;fill:#000000;fill-opacity:1;fill-rule:nonzero;stroke:none;stroke-width:2;stroke-linecap:round;stroke-linejoin:round;stroke-miterlimit:4;stroke-dasharray:none;stroke-dashoffset:0;stroke-opacity:1;color-rendering:auto;image-rendering:auto;shape-rendering:auto;text-rendering:auto;enable-background:accumulate"
     d="m 12,1.9492188 c -1.047116,0 -2.0209858,0.5476046 -2.5644531,1.4414062 a 1.0001,1.0001 0 0 0 -0.00391,0.00586 L 0.96289062,17.537109 a 1.0001,1.0001 0 0 0 -0.009766,0.01367 c -0.53139427,0.922082 -0.53367561,2.061948 -0.007813,2.986328 0.5270532,0.923841 1.5083046,1.503178 2.5742187,1.513672 a 1.0001,1.0001 0 0 0 0.00977,0 H 20.470703 a 1.0001,1.0001 0 0 0 0.0098,0 c 1.065914,-0.01049 2.047165,-0.589831 2.574219,-1.513672 0.525863,-0.92438 0.523581,-2.064246 -0.0078,-2.986328 a 1.0001,1.0001 0 0 0 -0.0098,-0.01367 L 14.568359,3.3964844 a 1.0001,1.0001 0 0 0 -0.0039,-0.00586 C 14.020986,2.4968234 13.047116,1.9492188 12,1.9492188 Z m 0,2 c 0.349933,0 0.670724,0.1797739 0.853516,0.4785156 l 8.460937,14.1230466 c 0.178606,0.309919 0.17809,0.686474 0.002,0.996094 -0.177144,0.309231 -0.499986,0.500406 -0.855468,0.503906 H 3.5390625 C 3.1835796,20.047281 2.8607385,19.856106 2.6835938,19.546875 2.5074569,19.237255 2.5069411,18.8607 2.6855469,18.550781 L 11.146484,4.4277344 C 11.329276,4.1289927 11.650067,3.9492188 12,3.9492188 Z"
     id="path7"
     inkscape:connector-curvature="0" />
  <path
     style="color:#000000;font-style:normal;font-variant:normal;font-weight:normal;font-stretch:normal;font-size:medium;line-height:normal;font-family:sans-serif;font-variant-ligatures:normal;font-variant-position:normal;font-variant-caps:normal;font-variant-numeric:normal;font-variant-alternates:normal;font-feature-settings:normal;text-indent:0;text-align:start;text-decoration:none;text-decoration-line:none;text-decoration-style:solid;text-decoration-color:#000000;letter-spacing:normal;word-spacing:normal;text-transform:none;writing-mode:lr-tb;direction:ltr;text-orientation:mixed;dominant-baseline:auto;baseline-shift:baseline;text-anchor:start;white-space:normal;shape-padding:0;clip-rule:nonzero;display:inline;overflow:visible;visibility:visible;opacity:1;isolation:auto;mix-blend-mode:normal;color-interpolation:sRGB;color-interpolation-filters:linearRGB;solid-color:#000000;solid-opacity:1;vector-effect:non-scaling-stroke;fill:#000000;fill-opacity:1;fill-rule:nonzero;stroke:none;stroke-width:2;stroke-linecap:round;stroke-linejoin:round;stroke-miterlimit:4;stroke-dasharray:none;stroke-dashoffset:0;stroke-opacity:1;color-rendering:auto;image-rendering:auto;shape-rendering:auto;text-rendering:auto;enable-background:accumulate"
     d="m 12,16 a 1.0001,1.0001 0 1 0 0,2 1.0001,1.0001 0 1 0 0,-2 z"
     id="line9"
     inkscape:connector-curvature="0" />
  <path
     style="color:#000000;font-style:normal;font-variant:normal;font-weight:normal;font-stretch:normal;font-size:medium;line-height:normal;font-family:sans-serif;font-variant-ligatures:normal;font-variant-position:normal;font-variant-caps:normal;font-variant-numeric:normal;font-variant-alternates:normal;font-feature-settings:normal;text-indent:0;text-align:start;text-decoration:none;text-decoration-line:none;text-decoration-style:solid;text-decoration-color:#000000;letter-spacing:normal;word-spacing:normal;text-transform:none;writing-mode:lr-tb;direction:ltr;text-orientation:mixed;dominant-baseline:auto;baseline-shift:baseline;text-anchor:start;white-space:normal;shape-padding:0;clip-rule:nonzero;display:inline;overflow:visible;visibility:visible;opacity:1;isolation:auto;mix-blend-mode:normal;color-interpolation:sRGB;color-interpolation-filters:linearRGB;solid-color:#000000;solid-opacity:1;vector-effect:non-scaling-stroke;fill:#000000;fill-opacity:1;fill-rule:nonzero;stroke:none;stroke-width:2;stroke-linecap:round;stroke-linejoin:round;stroke-miterlimit:3;stroke-dasharray:none;stroke-dashoffset:0;stroke-opacity:1;color-rendering:auto;image-rendering:auto;shape-rendering:auto;text-rendering:auto;enable-background:accumulate"
     d="M 12,8 C 10.301193,8 9,9.3964943 9,11 a 1.0001,1.0001 0 1 0 2,0 c 0,-0.426494 0.490807,-1 1,-1 0.556007,0 0.982883,0.44357 1,1.029297 0.0057,0.19303 -0.474543,0.669856 -1.066406,1.261719 l 0.08398,-0.07422 C 11.484339,12.641059 11,13.147515 11,13.933594 v 0.617187 a 1.0001,1.0001 0 1 0 2,0 v -0.617187 c 0,0.219412 -0.05776,0.103394 0.263672,-0.152344 a 1.0001,1.0001 0 0 0 0.08398,-0.07422 c 0.272137,-0.272137 1.698645,-1.115358 1.650391,-2.736328 C 14.951164,9.3664302 13.649993,8 12,8 Z"
     id="path11"
     inkscape:connector-curvature="0" />
</svg>
