<?xml version="1.0" standalone="no"?><!-- Generator: Gravit.io --><svg xmlns="http://www.w3.org/2000/svg" xmlns:xlink="http://www.w3.org/1999/xlink" style="isolation:isolate" viewBox="0 0 24 24" width="24" height="24"><defs><clipPath id="_clipPath_Ntuuq4XJQB1XDdR4TwWopeGopyI0s8I0"><rect width="24" height="24"/></clipPath></defs><g clip-path="url(#_clipPath_Ntuuq4XJQB1XDdR4TwWopeGopyI0s8I0)"><path d=" M 6.51 8.48 C 6.51 8.75 6.41 9 6.22 9.19 C 6.03 9.38 5.78 9.48 5.51 9.48 C 5.25 9.48 4.99 9.38 4.81 9.19 C 4.62 9 4.51 8.75 4.51 8.48 C 4.51 6.5 5.3 4.59 6.71 3.19 C 8.11 1.79 10.02 1 12 1 C 13.98 1 15.87 1.8 17.26 3.21 C 18.63 4.62 19.43 6.49 19.48 8.46 C 19.48 8.46 19.48 8.47 19.48 8.47 L 19.49 8.59 C 19.49 8.6 19.49 8.61 19.49 8.61 C 19.48 9.32 19.34 10.02 19.07 10.67 C 18.81 11.28 18.47 11.86 18.06 12.38 C 17.33 13.3 16.5 14.15 15.6 14.92 C 15.32 15.16 15.05 15.42 14.78 15.68 C 14.37 16.1 13.99 16.55 13.65 17.04 C 13.36 17.46 13.12 17.91 12.92 18.38 C 12.82 18.63 12.62 18.82 12.38 18.92 C 12.13 19.03 11.86 19.03 11.61 18.92 C 11.37 18.82 11.18 18.63 11.07 18.38 C 10.97 18.14 10.97 17.86 11.08 17.62 C 11.33 17.01 11.64 16.44 12.01 15.91 C 12.41 15.32 12.87 14.76 13.38 14.26 C 13.68 13.97 13.98 13.68 14.3 13.4 C 15.1 12.72 15.83 11.97 16.49 11.15 C 16.79 10.76 17.03 10.34 17.22 9.9 C 17.39 9.49 17.48 9.05 17.49 8.61 L 17.48 8.51 C 17.44 7.05 16.85 5.65 15.83 4.61 C 14.82 3.58 13.44 3 12 3 C 10.54 3 9.15 3.58 8.12 4.61 C 7.09 5.63 6.51 7.03 6.51 8.48 Z " fill="rgb(0,0,0)"/><path d=" M 11 22 C 11 21.448 11.448 21 12 21 C 12.552 21 13 21.448 13 22 C 13 22.552 12.552 23 12 23 C 11.448 23 11 22.552 11 22 Z " fill="rgb(0,0,0)"/></g></svg>