<?xml version="1.0" standalone="no"?><!-- Generator: Gravit.io --><svg xmlns="http://www.w3.org/2000/svg" xmlns:xlink="http://www.w3.org/1999/xlink" style="isolation:isolate" viewBox="0 0 24 24" width="24" height="24"><defs><clipPath id="_clipPath_JD1yIv02QIKyKA6S2AYjmJC5lWAxc9sY"><rect width="24" height="24"/></clipPath></defs><g clip-path="url(#_clipPath_JD1yIv02QIKyKA6S2AYjmJC5lWAxc9sY)"><path d=" M 12 1.95 C 13.05 1.95 14.02 2.5 14.56 3.39 C 14.57 3.39 14.57 3.4 14.57 3.4 L 23.04 17.54 C 23.04 17.54 23.04 17.55 23.05 17.55 C 23.31 18.01 23.45 18.52 23.45 19.05 C 23.45 19.57 23.31 20.08 23.05 20.54 C 22.53 21.46 21.55 22.04 20.48 22.05 C 20.48 22.05 20.47 22.05 20.47 22.05 L 3.53 22.05 C 3.53 22.05 3.52 22.05 3.52 22.05 C 2.45 22.04 1.47 21.46 0.95 20.54 C 0.69 20.08 0.55 19.57 0.55 19.05 C 0.55 18.52 0.69 18.01 0.95 17.55 C 0.96 17.55 0.96 17.54 0.96 17.54 L 9.43 3.4 C 9.43 3.4 9.43 3.39 9.44 3.39 C 9.98 2.5 10.95 1.95 12 1.95 Z  M 12 3.95 C 12.35 3.95 12.67 4.13 12.85 4.43 L 21.32 18.56 C 21.4 18.71 21.45 18.88 21.45 19.05 C 21.45 19.23 21.4 19.4 21.32 19.55 C 21.14 19.85 20.82 20.05 20.46 20.05 L 3.54 20.05 C 3.18 20.05 2.86 19.85 2.68 19.55 C 2.6 19.4 2.55 19.23 2.55 19.05 C 2.55 18.88 2.6 18.71 2.68 18.56 L 11.15 4.43 C 11.33 4.13 11.65 3.95 12 3.95 Z " fill-rule="evenodd" fill="rgb(0,0,0)"/><path d=" M 11 11.02 C 11 11.28 10.89 11.53 10.7 11.72 C 10.51 11.9 10.25 12 9.98 12 C 9.72 12 9.47 11.89 9.28 11.7 C 9.1 11.5 9 11.25 9 10.98 C 9.01 10.21 9.32 9.47 9.87 8.92 C 10.43 8.34 11.2 8.01 12 8 C 12.79 8.01 13.55 8.32 14.11 8.88 C 14.67 9.44 14.99 10.19 15 10.98 L 15 11.02 C 15 11.04 15 11.06 15 11.08 C 14.98 11.65 14.77 12.2 14.4 12.64 C 14.15 12.96 13.87 13.24 13.56 13.51 C 13.49 13.57 13.42 13.64 13.34 13.71 C 13.25 13.81 13.16 13.91 13.08 14.03 C 13.02 14.12 12.97 14.22 12.92 14.32 C 12.82 14.56 12.63 14.76 12.38 14.86 C 12.14 14.96 11.86 14.96 11.61 14.86 C 11.37 14.76 11.18 14.56 11.07 14.31 C 10.97 14.07 10.97 13.79 11.08 13.55 C 11.17 13.32 11.29 13.1 11.43 12.9 C 11.58 12.68 11.75 12.48 11.94 12.29 C 12.04 12.19 12.15 12.09 12.26 11.99 C 12.47 11.81 12.67 11.6 12.85 11.38 C 12.94 11.28 12.99 11.15 13 11.02 L 13 11.01 C 13 10.75 12.89 10.5 12.7 10.31 C 12.52 10.12 12.26 10.01 12 10 C 11.73 10.01 11.48 10.12 11.3 10.32 C 11.11 10.5 11 10.75 11 11.02 Z " fill="rgb(0,0,0)"/><path d=" M 11 17 C 11 16.448 11.448 16 12 16 C 12.552 16 13 16.448 13 17 C 13 17.552 12.552 18 12 18 C 11.448 18 11 17.552 11 17 Z " fill="rgb(0,0,0)"/></g></svg>