<?xml version="1.0" encoding="UTF-8" standalone="no"?>
<svg
   xmlns:dc="http://purl.org/dc/elements/1.1/"
   xmlns:cc="http://creativecommons.org/ns#"
   xmlns:rdf="http://www.w3.org/1999/02/22-rdf-syntax-ns#"
   xmlns:svg="http://www.w3.org/2000/svg"
   xmlns="http://www.w3.org/2000/svg"
   xmlns:sodipodi="http://sodipodi.sourceforge.net/DTD/sodipodi-0.dtd"
   xmlns:inkscape="http://www.inkscape.org/namespaces/inkscape"
   width="24"
   height="24"
   viewBox="0 0 24 24"
   fill="none"
   stroke="currentColor"
   stroke-width="2"
   stroke-linecap="round"
   stroke-linejoin="round"
   version="1.1"
   id="svg6"
   sodipodi:docname="youtube.svg"
   inkscape:version="0.92.4 5da689c313, 2019-01-14">
  <metadata
     id="metadata12">
    <rdf:RDF>
      <cc:Work
         rdf:about="">
        <dc:format>image/svg+xml</dc:format>
        <dc:type
           rdf:resource="http://purl.org/dc/dcmitype/StillImage" />
      </cc:Work>
    </rdf:RDF>
  </metadata>
  <defs
     id="defs10" />
  <sodipodi:namedview
     pagecolor="#ffffff"
     bordercolor="#666666"
     borderopacity="1"
     objecttolerance="10"
     gridtolerance="10"
     guidetolerance="10"
     inkscape:pageopacity="0"
     inkscape:pageshadow="2"
     inkscape:window-width="640"
     inkscape:window-height="480"
     id="namedview8"
     showgrid="false"
     inkscape:zoom="9.8333333"
     inkscape:cx="12"
     inkscape:cy="12"
     inkscape:window-x="0"
     inkscape:window-y="0"
     inkscape:window-maximized="0"
     inkscape:current-layer="svg6" />
  <path
     style="color:#000000;font-style:normal;font-variant:normal;font-weight:normal;font-stretch:normal;font-size:medium;line-height:normal;font-family:sans-serif;font-variant-ligatures:normal;font-variant-position:normal;font-variant-caps:normal;font-variant-numeric:normal;font-variant-alternates:normal;font-feature-settings:normal;text-indent:0;text-align:start;text-decoration:none;text-decoration-line:none;text-decoration-style:solid;text-decoration-color:#000000;letter-spacing:normal;word-spacing:normal;text-transform:none;writing-mode:lr-tb;direction:ltr;text-orientation:mixed;dominant-baseline:auto;baseline-shift:baseline;text-anchor:start;white-space:normal;shape-padding:0;clip-rule:nonzero;display:inline;overflow:visible;visibility:visible;opacity:1;isolation:auto;mix-blend-mode:normal;color-interpolation:sRGB;color-interpolation-filters:linearRGB;solid-color:#000000;solid-opacity:1;vector-effect:none;fill:#000000;fill-opacity:1;fill-rule:nonzero;stroke:none;stroke-width:2;stroke-linecap:butt;stroke-linejoin:miter;stroke-miterlimit:4;stroke-dasharray:none;stroke-dashoffset:0;stroke-opacity:1;color-rendering:auto;image-rendering:auto;shape-rendering:auto;text-rendering:auto;enable-background:accumulate"
     d="m 12,3 c 0,0 -1.732961,5.712e-4 -3.6855469,0.058594 -1.952586,0.058022 -3.9903871,0.1195675 -5.171875,0.4355468 a 1.0001,1.0001 0 0 0 -0.015625,0.00391 c -1.301312,0.368165 -2.30834909,1.4068309 -2.63671872,2.71875 A 1.0001,1.0001 0 0 0 0.4765625,6.2832031 C 0.15161449,8.0851123 -0.00833296,9.9132013 0,11.744141 c -1.2243944e-5,0.0019 1.1863632e-5,0.0039 0,0.0059 9.2536982e-6,0.002 -9.6338847e-6,0.0039 0,0.0059 -0.01086357,1.844755 0.14908351,3.686449 0.4765625,5.501953 a 1.0001,1.0001 0 0 0 0.0214844,0.0957 C 0.85980934,18.6238 1.8627538,19.616264 3.1367188,19.964844 a 1.0001,1.0001 0 0 0 0.00586,0.002 c 1.1814879,0.315979 3.219289,0.377524 5.171875,0.435547 C 10.267039,20.460366 12,20.460938 12,20.460938 c 0,0 1.732961,-5.72e-4 3.685547,-0.05859 1.952586,-0.05802 3.990387,-0.119568 5.171875,-0.435547 a 1.0001,1.0001 0 0 0 0.01563,-0.0039 c 1.301312,-0.368165 2.308349,-1.408784 2.636719,-2.720703 a 1.0001,1.0001 0 0 0 0.01367,-0.06445 C 23.845989,15.388782 24.005942,13.573634 24,11.755859 V 11.75 C 24.011235,9.9032892 23.851263,8.0596111 23.523438,6.2421875 a 1.0001,1.0001 0 0 0 -0.01367,-0.064453 C 23.181396,4.8658153 22.174359,3.8251963 20.873047,3.4570312 a 1.0001,1.0001 0 0 0 -0.03516,-0.00781 C 19.6794,3.1663316 17.632701,3.1056701 15.681641,3.0527344 13.73058,2.9997986 12,3 12,3 Z m 0,2 c 0,0 1.708013,6.701e-4 3.626953,0.052734 1.907074,0.051742 4.128264,0.1995165 4.707031,0.3359375 0.606145,0.1747262 1.068444,0.6533121 1.226563,1.2636719 C 21.860279,8.3328921 22.010719,10.037029 22,11.744141 a 1.0001,1.0001 0 0 0 0,0.0098 c 0.006,1.68132 -0.144377,3.358513 -0.439453,5.013672 -0.158367,0.611317 -0.620979,1.09158 -1.228516,1.265625 -0.544467,0.143822 -2.793563,0.312281 -4.707031,0.369141 -1.917414,0.05698 -3.625,0.05859 -3.625,0.05859 0,0 -1.707586,-0.0016 -3.625,-0.05859 C 6.4591643,18.345413 4.2030092,18.177145 3.6621094,18.033203 3.0681703,17.869642 2.6108223,17.409961 2.4355469,16.820312 2.1390882,15.148576 1.989339,13.453759 2,11.755859 a 1.0001,1.0001 0 0 0 0,-0.01172 C 1.9916321,10.050631 2.1403551,8.3605381 2.4375,6.6933594 2.5955109,6.081361 3.0599584,5.5999603 3.6679688,5.4257812 4.2124361,5.281959 6.4615317,5.1135008 8.375,5.0566406 10.292414,4.9996632 12,5 12,5 Z"
     id="path2"
     inkscape:connector-curvature="0" />
  <path
     style="color:#000000;font-style:normal;font-variant:normal;font-weight:normal;font-stretch:normal;font-size:medium;line-height:normal;font-family:sans-serif;font-variant-ligatures:normal;font-variant-position:normal;font-variant-caps:normal;font-variant-numeric:normal;font-variant-alternates:normal;font-feature-settings:normal;text-indent:0;text-align:start;text-decoration:none;text-decoration-line:none;text-decoration-style:solid;text-decoration-color:#000000;letter-spacing:normal;word-spacing:normal;text-transform:none;writing-mode:lr-tb;direction:ltr;text-orientation:mixed;dominant-baseline:auto;baseline-shift:baseline;text-anchor:start;white-space:normal;shape-padding:0;clip-rule:nonzero;display:inline;overflow:visible;visibility:visible;opacity:1;isolation:auto;mix-blend-mode:normal;color-interpolation:sRGB;color-interpolation-filters:linearRGB;solid-color:#000000;solid-opacity:1;vector-effect:none;fill:#000000;fill-opacity:1;fill-rule:nonzero;stroke:none;stroke-width:2;stroke-linecap:butt;stroke-linejoin:miter;stroke-miterlimit:4;stroke-dasharray:none;stroke-dashoffset:0;stroke-opacity:1;color-rendering:auto;image-rendering:auto;shape-rendering:auto;text-rendering:auto;enable-background:accumulate"
     d="m 9.7675781,7.4804688 a 1.0001,1.0001 0 0 0 -1.0175781,1 v 6.5390622 a 1.0001,1.0001 0 0 0 1.494141,0.869141 l 5.75,-3.269531 a 1.0001,1.0001 0 0 0 0,-1.738282 l -5.75,-3.2695309 A 1.0001,1.0001 0 0 0 9.7675781,7.4804688 Z M 10.75,10.199219 13.476562,11.75 10.75,13.300781 Z"
     id="polygon4"
     inkscape:connector-curvature="0" />
</svg>
