<?xml version="1.0" standalone="no"?><!-- Generator: Gravit.io --><svg xmlns="http://www.w3.org/2000/svg" xmlns:xlink="http://www.w3.org/1999/xlink" style="isolation:isolate" viewBox="0 0 24 24" width="24" height="24"><defs><clipPath id="_clipPath_a8Zp0ljJLDqyuAr1r5XW2WhJFEyDKVWC"><rect width="24" height="24"/></clipPath></defs><g clip-path="url(#_clipPath_a8Zp0ljJLDqyuAr1r5XW2WhJFEyDKVWC)"><path d=" M 5 18 L 3 18 C 1.895 18 1 17.105 1 16 L 1 8 C 1 6.895 1.895 6 3 6 L 7 6 M 15 6 L 17 6 C 18.105 6 19 6.895 19 8 L 19 16 C 19 17.105 18.105 18 17 18 L 14 18" fill="none" vector-effect="non-scaling-stroke" stroke-width="2" stroke="rgb(0,0,0)" stroke-linejoin="round" stroke-linecap="round" stroke-miterlimit="4"/><line x1="23" y1="13" x2="23" y2="11" vector-effect="non-scaling-stroke" stroke-width="2" stroke="rgb(0,0,0)" stroke-linejoin="round" stroke-linecap="round" stroke-miterlimit="4"/><path d=" M 11 6 L 7 12 L 13 12 L 9 18" fill="none" vector-effect="non-scaling-stroke" stroke-width="2" stroke="rgb(0,0,0)" stroke-linejoin="round" stroke-linecap="round" stroke-miterlimit="4"/><line x1="4" y1="9" x2="4" y2="15" vector-effect="non-scaling-stroke" stroke-width="2" stroke="rgb(0,0,0)" stroke-linejoin="round" stroke-linecap="round" stroke-miterlimit="3"/></g></svg>