<svg width="24" height="24" viewBox="0 0 24 24" fill="none" xmlns="http://www.w3.org/2000/svg">
<path d="M5 18H3C1.895 18 1 17.105 1 16V8C1 6.895 1.895 6 3 6H7M15 6H17C18.105 6 19 6.895 19 8V16C19 17.105 18.105 18 17 18H14" stroke="black" stroke-width="2" stroke-linecap="round" stroke-linejoin="round"/>
<path d="M11 6L7 12H10H13L9 18" stroke="black" stroke-width="2" stroke-linecap="round" stroke-linejoin="round"/>
<path fill-rule="evenodd" clip-rule="evenodd" d="M6.24241 8.62944C6.09705 8.54704 5.92902 8.5 5.75 8.5H4.5C3.94772 8.5 3.5 8.94771 3.5 9.5V14.5C3.5 15.0523 3.94772 15.5 4.5 15.5H5.75C6.30228 15.5 6.75 15.0523 6.75 14.5V14.4875C5.927 14.405 5.19121 13.9184 4.79581 13.1796C4.36077 12.3668 4.40845 11.3804 4.91987 10.6132L6.24241 8.62944Z" fill="black"/>
<path d="M23 13V11" stroke="black" stroke-width="2" stroke-linecap="round" stroke-linejoin="round"/>
</svg>
