<svg width="24" height="24" viewBox="0 0 24 24" fill="none" xmlns="http://www.w3.org/2000/svg">
<path d="M23 13V11" stroke="black" stroke-width="2" stroke-linecap="round" stroke-linejoin="round"/>
<path d="M5 18H3C1.895 18 1 17.105 1 16V8C1 6.895 1.895 6 3 6H7M15 6H17C18.105 6 19 6.895 19 8V16C19 17.105 18.105 18 17 18H14" stroke="black" stroke-width="2" stroke-linecap="round" stroke-linejoin="round"/>
<path d="M11 6L7 12H10H13L9 18" stroke="black" stroke-width="2" stroke-linecap="round" stroke-linejoin="round"/>
<path fill-rule="evenodd" clip-rule="evenodd" d="M6.32871 8.5H4.5C3.94772 8.5 3.5 8.94772 3.5 9.5V14.5C3.5 15.0523 3.94772 15.5 4.5 15.5H7.66204L8.32871 14.5H7C6.07801 14.5 5.23086 13.9925 4.79581 13.1796C4.36077 12.3668 4.40845 11.3804 4.91987 10.6132L6.32871 8.5ZM13.6713 15.5H15.5C16.0523 15.5 16.5 15.0523 16.5 14.5V9.5C16.5 8.94772 16.0523 8.5 15.5 8.5H12.338L11.6713 9.5H13C13.922 9.5 14.7691 10.0075 15.2042 10.8204C15.6392 11.6332 15.5916 12.6196 15.0801 13.3868L13.6713 15.5Z" fill="black"/>
</svg>
