<?xml version="1.0" standalone="no"?><!-- Generator: Gravit.io --><svg xmlns="http://www.w3.org/2000/svg" xmlns:xlink="http://www.w3.org/1999/xlink" style="isolation:isolate" viewBox="0 0 24 24" width="24" height="24"><defs><clipPath id="_clipPath_KX6y2Or1n3JJhkZ50jILuazxd8fU9pmQ"><rect width="24" height="24"/></clipPath></defs><g clip-path="url(#_clipPath_KX6y2Or1n3JJhkZ50jILuazxd8fU9pmQ)"><path d=" M 7 12 C 7 9.24 9.24 7 12 7 C 14.76 7 17 9.24 17 12 C 17 14.76 14.76 17 12 17 C 9.24 17 7 14.76 7 12 Z " fill="none" vector-effect="non-scaling-stroke" stroke-width="2" stroke="rgb(0,0,0)" stroke-linejoin="round" stroke-linecap="round" stroke-miterlimit="4"/><line x1="12" y1="1" x2="12" y2="3" vector-effect="non-scaling-stroke" stroke-width="2" stroke="rgb(0,0,0)" stroke-linejoin="round" stroke-linecap="round" stroke-miterlimit="4"/><line x1="12" y1="21" x2="12" y2="23" vector-effect="non-scaling-stroke" stroke-width="2" stroke="rgb(0,0,0)" stroke-linejoin="round" stroke-linecap="round" stroke-miterlimit="4"/><line x1="4.22" y1="4.22" x2="5.64" y2="5.64" vector-effect="non-scaling-stroke" stroke-width="2" stroke="rgb(0,0,0)" stroke-linejoin="round" stroke-linecap="round" stroke-miterlimit="4"/><line x1="18.36" y1="18.36" x2="19.78" y2="19.78" vector-effect="non-scaling-stroke" stroke-width="2" stroke="rgb(0,0,0)" stroke-linejoin="round" stroke-linecap="round" stroke-miterlimit="4"/><line x1="1" y1="12" x2="3" y2="12" vector-effect="non-scaling-stroke" stroke-width="2" stroke="rgb(0,0,0)" stroke-linejoin="round" stroke-linecap="round" stroke-miterlimit="4"/><line x1="21" y1="12" x2="23" y2="12" vector-effect="non-scaling-stroke" stroke-width="2" stroke="rgb(0,0,0)" stroke-linejoin="round" stroke-linecap="round" stroke-miterlimit="4"/><line x1="4.22" y1="19.78" x2="5.64" y2="18.36" vector-effect="non-scaling-stroke" stroke-width="2" stroke="rgb(0,0,0)" stroke-linejoin="round" stroke-linecap="round" stroke-miterlimit="4"/><line x1="18.36" y1="5.64" x2="19.78" y2="4.22" vector-effect="non-scaling-stroke" stroke-width="2" stroke="rgb(0,0,0)" stroke-linejoin="round" stroke-linecap="round" stroke-miterlimit="4"/></g></svg>