<svg width="24" height="24" viewBox="0 0 24 24" fill="none" xmlns="http://www.w3.org/2000/svg">
<path opacity="0.98" d="M12 22C17.5228 22 22 17.5228 22 12C22 6.47715 17.5228 2 12 2C6.47715 2 2 6.47715 2 12C2 17.5228 6.47715 22 12 22Z" stroke="black" stroke-width="2" stroke-linecap="round" stroke-linejoin="round"/>
<path d="M10.2322 15.2678C10.5707 15.6063 10.9993 15.8405 11.467 15.9425C11.9347 16.0446 12.4219 16.0102 12.8706 15.8435C13.3193 15.6768 13.7108 15.3848 13.9984 15.0021C14.286 14.6195 14.4578 14.1623 14.4932 13.6849C14.5286 13.2075 14.4261 12.73 14.1981 12.3091C13.9701 11.8882 13.626 11.5416 13.2067 11.3105C12.7875 11.0795 12.3107 10.9736 11.8331 11.0056C11.3554 11.0375 10.897 11.206 10.5123 11.4908" stroke="black" stroke-width="2" stroke-linecap="round" stroke-linejoin="round"/>
<path d="M14.5 8H10.5V11.5" stroke="black" stroke-width="2" stroke-linecap="round" stroke-linejoin="round"/>
</svg>
