<svg width="24" height="24" viewBox="0 0 24 24" fill="none" xmlns="http://www.w3.org/2000/svg">
<path d="M12 22C17.5228 22 22 17.5228 22 12C22 6.47715 17.5228 2 12 2C6.47715 2 2 6.47715 2 12C2 17.5228 6.47715 22 12 22Z" stroke="black" stroke-width="2" stroke-linecap="round" stroke-linejoin="round"/>
<path d="M11.1647 11.7498C11.8549 10.5543 11.4453 9.02554 10.2498 8.3353C9.05426 7.64506 7.52554 8.05468 6.8353 9.25021C6.14506 10.4457 6.55468 11.9745 7.75021 12.6647C8.94574 13.3549 10.4745 12.9453 11.1647 11.7498ZM11.1647 11.7498L8.5 16" stroke="black" stroke-width="2" stroke-linecap="round" stroke-linejoin="round"/>
<path d="M16 11V14" stroke="black" stroke-width="2" stroke-linecap="round" stroke-linejoin="round"/>
<path d="M14.5 12.5H17.5" stroke="black" stroke-width="2" stroke-linecap="round" stroke-linejoin="round"/>
</svg>
