<?xml version="1.0" standalone="no"?><!-- Generator: Gravit.io --><svg xmlns="http://www.w3.org/2000/svg" xmlns:xlink="http://www.w3.org/1999/xlink" style="isolation:isolate" viewBox="0 0 24 24" width="24" height="24"><defs><clipPath id="_clipPath_Wr4eQ6AVgxL1SKipGFk6OfyMI2MAKGXU"><rect width="24" height="24"/></clipPath></defs><g clip-path="url(#_clipPath_Wr4eQ6AVgxL1SKipGFk6OfyMI2MAKGXU)"><path d=" M 18.003 13 L 16.743 13 C 15.704 8.974 11.753 6.415 7.654 7.114 C 3.555 7.812 0.674 11.534 1.026 15.677 C 1.378 19.82 4.845 23.003 9.003 23 L 18.003 23 C 20.765 23 23.003 20.761 23.003 18 C 23.003 15.239 20.765 13 18.003 13 Z " fill="none" vector-effect="non-scaling-stroke" stroke-width="2" stroke="rgb(0,0,0)" stroke-linejoin="round" stroke-linecap="round" stroke-miterlimit="4"/><path d=" M 16.329 11.712 C 16.329 11.712 16.329 11.713 16.33 11.713" fill="none" vector-effect="non-scaling-stroke" stroke-width="2" stroke="rgb(0,0,0)" stroke-linejoin="round" stroke-linecap="round" stroke-miterlimit="4"/><path d=" M 12.216 7.599 C 12.573 6.106 13.917 5 15.519 5 C 17.4 5 18.928 6.528 18.928 8.409 C 18.928 10.01 17.822 11.355 16.33 11.712" fill="none" vector-effect="non-scaling-stroke" stroke-width="2" stroke="rgb(0,0,0)" stroke-linejoin="round" stroke-linecap="round" stroke-miterlimit="4"/><line x1="15.5" y1="1" x2="15.5" y2="2.364" vector-effect="non-scaling-stroke" stroke-width="2" stroke="rgb(0,0,0)" stroke-linejoin="round" stroke-linecap="round" stroke-miterlimit="4"/><line x1="10.195" y1="3.195" x2="11.164" y2="4.164" vector-effect="non-scaling-stroke" stroke-width="2" stroke="rgb(0,0,0)" stroke-linejoin="round" stroke-linecap="round" stroke-miterlimit="4"/><line x1="21.636" y1="8.5" x2="23" y2="8.5" vector-effect="non-scaling-stroke" stroke-width="2" stroke="rgb(0,0,0)" stroke-linejoin="round" stroke-linecap="round" stroke-miterlimit="4"/><line x1="19.836" y1="4.164" x2="20.805" y2="3.195" vector-effect="non-scaling-stroke" stroke-width="2" stroke="rgb(0,0,0)" stroke-linejoin="round" stroke-linecap="round" stroke-miterlimit="4"/></g></svg>