<?xml version="1.0" standalone="no"?><!-- Generator: Gravit.io --><svg xmlns="http://www.w3.org/2000/svg" xmlns:xlink="http://www.w3.org/1999/xlink" style="isolation:isolate" viewBox="0 0 24 24" width="24" height="24"><defs><clipPath id="_clipPath_KRQ0BVUkOxgGwbz7tudmP9a3xICbYxIW"><rect width="24" height="24"/></clipPath></defs><g clip-path="url(#_clipPath_KRQ0BVUkOxgGwbz7tudmP9a3xICbYxIW)"><path d=" M 18.003 13 L 16.743 13 C 15.704 8.974 11.753 6.415 7.654 7.114 C 3.555 7.812 0.674 11.534 1.026 15.677 C 1.378 19.82 4.845 23.003 9.003 23 L 18.003 23 C 20.765 23 23.003 20.761 23.003 18 C 23.003 15.239 20.765 13 18.003 13 Z " fill="none" vector-effect="non-scaling-stroke" stroke-width="2" stroke="rgb(0,0,0)" stroke-linejoin="round" stroke-linecap="round" stroke-miterlimit="4"/><path d=" M 19.691 13.301 C 21.632 12.321 23.03 10.393 23.243 8.086 C 21.226 9.576 18.423 9.367 16.649 7.594 C 14.876 5.821 14.667 3.017 16.158 1 C 12.923 1.299 10.435 3.924 10.247 7.109" fill="none" vector-effect="non-scaling-stroke" stroke-width="2" stroke="rgb(0,0,0)" stroke-linejoin="round" stroke-linecap="round" stroke-miterlimit="4"/></g></svg>