<?xml version="1.0" standalone="no"?><!-- Generator: Gravit.io --><svg xmlns="http://www.w3.org/2000/svg" xmlns:xlink="http://www.w3.org/1999/xlink" style="isolation:isolate" viewBox="0 0 24 24" width="24" height="24"><defs><clipPath id="_clipPath_sqRuQKQdXdZlwza1MXOa419Jj5MRvldF"><rect width="24" height="24"/></clipPath></defs><g clip-path="url(#_clipPath_sqRuQKQdXdZlwza1MXOa419Jj5MRvldF)"><path d=" M 20.006 16.58 C 22.173 15.631 23.378 13.294 22.894 10.978 C 22.411 8.663 20.371 7.003 18.006 7 L 16.746 7 C 15.875 3.629 12.925 1.209 9.45 1.013 C 5.974 0.817 2.771 2.891 1.528 6.143 C 1.176 7.064 1.004 8.019 1 8.964 C 0.997 9.642 1.08 10.314 1.245 10.966" fill="none" vector-effect="non-scaling-stroke" stroke-width="2" stroke="rgb(0,0,0)" stroke-linejoin="round" stroke-linecap="round" stroke-miterlimit="4"/><path d=" M 7.498 11 L 9.267 12.768 C 9.982 13.483 10.197 14.559 9.81 15.493 C 9.423 16.427 8.511 17.037 7.5 17.037 C 6.489 17.037 5.577 16.427 5.19 15.493 C 4.803 14.559 5.018 13.483 5.733 12.768 L 7.498 11 Z " fill="none" vector-effect="non-scaling-stroke" stroke-width="2" stroke="rgb(0,0,0)" stroke-linejoin="round" stroke-linecap="round" stroke-miterlimit="4"/><path d=" M 14.498 16 L 16.267 17.769 C 16.982 18.484 17.197 19.559 16.81 20.493 C 16.423 21.428 15.511 22.037 14.5 22.037 C 13.489 22.037 12.577 21.428 12.19 20.493 C 11.803 19.559 12.018 18.484 12.733 17.769 L 14.498 16 Z " fill="none" vector-effect="non-scaling-stroke" stroke-width="2" stroke="rgb(0,0,0)" stroke-linejoin="round" stroke-linecap="round" stroke-miterlimit="4"/></g></svg>