<?xml version="1.0" standalone="no"?><!-- Generator: Gravit.io --><svg xmlns="http://www.w3.org/2000/svg" xmlns:xlink="http://www.w3.org/1999/xlink" style="isolation:isolate" viewBox="0 0 24 24" width="24" height="24"><defs><clipPath id="_clipPath_DgOYVwMeJh4lTjZaEsXM43KzaoC3qJnu"><rect width="24" height="24"/></clipPath></defs><g clip-path="url(#_clipPath_DgOYVwMeJh4lTjZaEsXM43KzaoC3qJnu)"><path d=" M 20.006 16.58 C 22.173 15.631 23.378 13.294 22.894 10.978 C 22.411 8.663 20.371 7.003 18.006 7 L 16.746 7 C 15.875 3.629 12.925 1.209 9.45 1.013 C 5.974 0.817 2.771 2.891 1.528 6.143 C 1.176 7.064 1.004 8.019 1 8.964 C 0.997 9.642 1.08 10.314 1.245 10.966" fill="none" vector-effect="non-scaling-stroke" stroke-width="2" stroke="rgb(0,0,0)" stroke-linejoin="round" stroke-linecap="round" stroke-miterlimit="4"/><path d=" M 7.124 11 L 8.893 12.768 C 9.608 13.483 9.822 14.559 9.435 15.493 C 9.048 16.427 8.137 17.037 7.126 17.037 C 6.114 17.037 5.203 16.427 4.816 15.493 C 4.429 14.559 4.643 13.483 5.358 12.768 L 7.124 11 Z " fill="none" vector-effect="non-scaling-stroke" stroke-width="2" stroke="rgb(0,0,0)" stroke-linejoin="round" stroke-linecap="round" stroke-miterlimit="4"/><path d=" M 14.124 16 L 15.893 17.769 C 16.608 18.484 16.822 19.559 16.435 20.493 C 16.048 21.428 15.137 22.037 14.126 22.037 C 13.114 22.037 12.203 21.428 11.816 20.493 C 11.429 19.559 11.643 18.484 12.358 17.769 L 14.124 16 Z " fill="none" vector-effect="non-scaling-stroke" stroke-width="2" stroke="rgb(0,0,0)" stroke-linejoin="round" stroke-linecap="round" stroke-miterlimit="4"/></g></svg>