<?xml version="1.0" standalone="no"?><!-- Generator: Gravit.io --><svg xmlns="http://www.w3.org/2000/svg" xmlns:xlink="http://www.w3.org/1999/xlink" style="isolation:isolate" viewBox="0 0 24 24" width="24" height="24"><defs><clipPath id="_clipPath_cV15MLdgIP864XpqfM34Q5B4s5KyTU2c"><rect width="24" height="24"/></clipPath></defs><g clip-path="url(#_clipPath_cV15MLdgIP864XpqfM34Q5B4s5KyTU2c)"><path d=" M 20.006 16.58 C 22.173 15.631 23.378 13.294 22.894 10.978 C 22.411 8.663 20.371 7.003 18.006 7 L 16.746 7 C 15.875 3.629 12.925 1.209 9.45 1.013 C 5.974 0.817 2.771 2.891 1.528 6.143 C 1.176 7.064 1.004 8.019 1 8.964 C 0.997 9.642 1.08 10.314 1.245 10.966" fill="none" vector-effect="non-scaling-stroke" stroke-width="2" stroke="rgb(0,0,0)" stroke-linejoin="round" stroke-linecap="round" stroke-miterlimit="4"/><path d=" M 10.623 11 L 13.1 13.476 C 14.101 14.477 14.401 15.982 13.859 17.29 C 13.318 18.598 12.041 19.451 10.626 19.451 C 9.21 19.451 7.933 18.598 7.392 17.29 C 6.85 15.982 7.15 14.477 8.152 13.476 L 10.623 11 Z " fill="none" vector-effect="non-scaling-stroke" stroke-width="2" stroke="rgb(0,0,0)" stroke-linejoin="round" stroke-linecap="round" stroke-miterlimit="4"/></g></svg>