<?xml version="1.0" standalone="no"?><!-- Generator: Gravit.io --><svg xmlns="http://www.w3.org/2000/svg" xmlns:xlink="http://www.w3.org/1999/xlink" style="isolation:isolate" viewBox="0 0 24 24" width="24" height="24"><defs><clipPath id="_clipPath_LFo384VeANFdxlpv8fyqyeoJzuypU37C"><rect width="24" height="24"/></clipPath></defs><g clip-path="url(#_clipPath_LFo384VeANFdxlpv8fyqyeoJzuypU37C)"><path d=" M 20.006 16.58 C 22.173 15.631 23.378 13.294 22.894 10.978 C 22.411 8.663 20.371 7.003 18.006 7 L 16.746 7 C 15.875 3.629 12.925 1.209 9.45 1.013 C 5.974 0.817 2.771 2.891 1.528 6.143 C 1.176 7.064 1.004 8.019 1 8.964 C 0.997 9.642 1.08 10.314 1.245 10.966" fill="none" vector-effect="non-scaling-stroke" stroke-width="2" stroke="rgb(0,0,0)" stroke-linejoin="round" stroke-linecap="round" stroke-miterlimit="4"/><path d=" M 11.498 11 L 13.974 13.476 C 14.975 14.477 15.275 15.982 14.734 17.29 C 14.192 18.598 12.916 19.451 11.5 19.451 C 10.084 19.451 8.808 18.598 8.266 17.29 C 7.725 15.982 8.025 14.477 9.026 13.476 L 11.498 11 Z " fill="none" vector-effect="non-scaling-stroke" stroke-width="2" stroke="rgb(0,0,0)" stroke-linejoin="round" stroke-linecap="round" stroke-miterlimit="4"/></g></svg>