<?xml version="1.0" encoding="UTF-8" standalone="no"?><!-- Generator: Gravit.io --><svg xmlns="http://www.w3.org/2000/svg" xmlns:xlink="http://www.w3.org/1999/xlink" style="isolation:isolate" viewBox="0 0 24 24" width="24pt" height="24pt"><defs><clipPath id="_clipPath_riOGflOoXuXrCztJRwzMqCBGWlShmjPH"><rect width="24" height="24"/></clipPath></defs><g clip-path="url(#_clipPath_riOGflOoXuXrCztJRwzMqCBGWlShmjPH)"><path d=" M 12 12 L 12 1 M 9 3 L 12 6 M 15 3 L 12 6 M 12 11.998 L 2.474 6.498 M 2.706 10.096 L 6.804 8.998 M 5.706 4.9 L 6.804 8.998 M 12 12 L 2.474 17.5 M 5.706 19.098 L 6.804 15 M 2.706 13.902 L 6.804 15 M 12.002 12.001 L 12.002 23.001 M 15.002 21.001 L 12.002 18.001 M 9.002 21.001 L 12.002 18.001 M 12.003 12 L 21.53 17.5 M 21.298 13.902 L 17.199 15 M 18.298 19.098 L 17.199 15 M 12.003 11.998 L 21.53 6.498 M 18.298 4.9 L 17.199 8.998 M 21.298 10.096 L 17.199 8.998" fill-rule="evenodd" fill="none" vector-effect="non-scaling-stroke" stroke-width="2" stroke="rgb(0,0,0)" stroke-linejoin="round" stroke-linecap="round" stroke-miterlimit="3"/></g></svg>