<svg width="24" height="24" viewBox="0 0 24 24" fill="none" xmlns="http://www.w3.org/2000/svg">
<path d="M12 22C17.5228 22 22 17.5228 22 12C22 6.47715 17.5228 2 12 2C6.47715 2 2 6.47715 2 12C2 17.5228 6.47715 22 12 22Z" stroke="black" stroke-width="2" stroke-linecap="round" stroke-linejoin="round"/>
<path d="M10.0849 15.107C10.347 15.4194 10.6816 15.6629 11.0594 15.8163C11.4373 15.9697 11.8469 16.0284 12.2526 15.9872C12.6584 15.946 13.0478 15.8062 13.3871 15.5799C13.7264 15.3536 14.0052 15.0478 14.1991 14.6891C14.3931 14.3303 14.4963 13.9296 14.4999 13.5218C14.5035 13.114 14.4072 12.7116 14.2195 12.3495C14.0319 11.9874 13.7585 11.6768 13.4232 11.4446C13.0879 11.2125 12.7009 11.0659 12.296 11.0176" stroke="black" stroke-width="2" stroke-linecap="round" stroke-linejoin="round"/>
<path d="M10 8H14.5L12.2143 11" stroke="black" stroke-width="2" stroke-linecap="round" stroke-linejoin="round"/>
</svg>
