<?xml version="1.0" standalone="no"?><!-- Generator: Gravit.io --><svg xmlns="http://www.w3.org/2000/svg" xmlns:xlink="http://www.w3.org/1999/xlink" style="isolation:isolate" viewBox="0 0 24 24" width="24" height="24"><defs><clipPath id="_clipPath_RThbtPOFJOnBPgZjt0u7wCPowJNtsEHR"><rect width="24" height="24"/></clipPath></defs><g clip-path="url(#_clipPath_RThbtPOFJOnBPgZjt0u7wCPowJNtsEHR)"><path d=" M 20.006 16.58 C 22.173 15.631 23.378 13.294 22.894 10.978 C 22.411 8.663 20.371 7.003 18.006 7 L 16.746 7 C 15.875 3.629 12.925 1.209 9.45 1.013 C 5.974 0.817 2.771 2.891 1.528 6.143 C 1.176 7.064 1.004 8.019 1 8.964 C 0.997 9.642 1.08 10.314 1.245 10.966" fill="none" vector-effect="non-scaling-stroke" stroke-width="2" stroke="rgb(0,0,0)" stroke-linejoin="round" stroke-linecap="round" stroke-miterlimit="4"/><path d=" M 6.167 11 L 3.5 15 L 7.5 15 L 4.833 19" fill="none" vector-effect="non-scaling-stroke" stroke-width="2" stroke="rgb(0,0,0)" stroke-linejoin="round" stroke-linecap="round" stroke-miterlimit="4"/><path d=" M 13.498 15 L 15.267 16.768 C 15.982 17.483 16.197 18.559 15.81 19.493 C 15.423 20.427 14.511 21.037 13.5 21.037 C 12.489 21.037 11.577 20.427 11.19 19.493 C 10.803 18.559 11.018 17.483 11.733 16.768 L 13.498 15 Z " fill="none" vector-effect="non-scaling-stroke" stroke-width="2" stroke="rgb(0,0,0)" stroke-linejoin="round" stroke-linecap="round" stroke-miterlimit="4"/></g></svg>