<?xml version="1.0" standalone="no"?><!-- Generator: Gravit.io --><svg xmlns="http://www.w3.org/2000/svg" xmlns:xlink="http://www.w3.org/1999/xlink" style="isolation:isolate" viewBox="0 0 24 24" width="24" height="24"><defs><clipPath id="_clipPath_25RDd1GssGjVWe4JyiwOtriXameN4X4t"><rect width="24" height="24"/></clipPath></defs><g clip-path="url(#_clipPath_25RDd1GssGjVWe4JyiwOtriXameN4X4t)"><path d=" M 20.006 16.58 C 22.173 15.631 23.378 13.294 22.894 10.978 C 22.411 8.663 20.371 7.003 18.006 7 L 16.746 7 C 15.875 3.629 12.925 1.209 9.45 1.013 C 5.974 0.817 2.771 2.891 1.528 6.143 C 1.176 7.064 1.004 8.019 1 8.964 C 0.997 9.642 1.08 10.314 1.245 10.966" fill="none" vector-effect="non-scaling-stroke" stroke-width="2" stroke="rgb(0,0,0)" stroke-linejoin="round" stroke-linecap="round" stroke-miterlimit="4"/><path d=" M 7.042 11 L 4.376 15 L 8.376 15 L 5.709 19" fill="none" vector-effect="non-scaling-stroke" stroke-width="2" stroke="rgb(0,0,0)" stroke-linejoin="round" stroke-linecap="round" stroke-miterlimit="4"/><path d=" M 14.374 15 L 16.143 16.768 C 16.858 17.483 17.072 18.559 16.685 19.493 C 16.298 20.427 15.387 21.037 14.376 21.037 C 13.364 21.037 12.453 20.427 12.066 19.493 C 11.679 18.559 11.893 17.483 12.608 16.768 L 14.374 15 Z " fill="none" vector-effect="non-scaling-stroke" stroke-width="2" stroke="rgb(0,0,0)" stroke-linejoin="round" stroke-linecap="round" stroke-miterlimit="4"/></g></svg>