<?xml version="1.0" standalone="no"?><!-- Generator: Gravit.io --><svg xmlns="http://www.w3.org/2000/svg" xmlns:xlink="http://www.w3.org/1999/xlink" style="isolation:isolate" viewBox="0 0 24 24" width="24" height="24"><defs><clipPath id="_clipPath_TNplrAZF4uuUX9tUOycgxOJOU53Z0x1a"><rect width="24" height="24"/></clipPath></defs><g clip-path="url(#_clipPath_TNplrAZF4uuUX9tUOycgxOJOU53Z0x1a)"><path d=" M 20.006 16.58 C 22.173 15.631 23.378 13.294 22.894 10.978 C 22.411 8.663 20.371 7.003 18.006 7 L 16.746 7 C 15.875 3.629 12.925 1.209 9.45 1.013 C 5.974 0.817 2.771 2.891 1.528 6.143 C 1.176 7.064 1.004 8.019 1 8.964 C 0.997 9.642 1.08 10.314 1.245 10.966" fill="none" vector-effect="non-scaling-stroke" stroke-width="2" stroke="rgb(0,0,0)" stroke-linejoin="round" stroke-linecap="round" stroke-miterlimit="4"/><path d=" M 6.167 11 L 3.5 15 L 7.5 15 L 4.833 19" fill="none" vector-effect="non-scaling-stroke" stroke-width="2" stroke="rgb(0,0,0)" stroke-linejoin="round" stroke-linecap="round" stroke-miterlimit="4"/><path d=" M 12.499 11 L 13.56 12.061 C 13.989 12.49 14.118 13.135 13.886 13.696 C 13.654 14.256 13.107 14.622 12.5 14.622 C 11.893 14.622 11.346 14.256 11.114 13.696 C 10.882 13.135 11.011 12.49 11.44 12.061 L 12.499 11 Z " fill="none" vector-effect="non-scaling-stroke" stroke-width="2" stroke="rgb(0,0,0)" stroke-linejoin="round" stroke-linecap="round" stroke-miterlimit="4"/><path d=" M 15.499 17 L 16.56 18.061 C 16.989 18.49 17.118 19.135 16.886 19.696 C 16.654 20.257 16.107 20.622 15.5 20.622 C 14.893 20.622 14.346 20.257 14.114 19.696 C 13.882 19.135 14.011 18.49 14.44 18.061 L 15.499 17 Z " fill="none" vector-effect="non-scaling-stroke" stroke-width="2" stroke="rgb(0,0,0)" stroke-linejoin="round" stroke-linecap="round" stroke-miterlimit="4"/></g></svg>