<?xml version="1.0" standalone="no"?><!-- Generator: Gravit.io --><svg xmlns="http://www.w3.org/2000/svg" xmlns:xlink="http://www.w3.org/1999/xlink" style="isolation:isolate" viewBox="0 0 24 24" width="24" height="24"><defs><clipPath id="_clipPath_sqfgu12N2U9KVUjI4h3IjtC5TxJRnwY7"><rect width="24" height="24"/></clipPath></defs><g clip-path="url(#_clipPath_sqfgu12N2U9KVUjI4h3IjtC5TxJRnwY7)"><path d=" M 20.006 16.58 C 22.173 15.631 23.378 13.294 22.894 10.978 C 22.411 8.663 20.371 7.003 18.006 7 L 16.746 7 C 15.875 3.629 12.925 1.209 9.45 1.013 C 5.974 0.817 2.771 2.891 1.528 6.143 C 1.176 7.064 1.004 8.019 1 8.964 C 0.997 9.642 1.08 10.314 1.245 10.966" fill="none" vector-effect="non-scaling-stroke" stroke-width="2" stroke="rgb(0,0,0)" stroke-linejoin="round" stroke-linecap="round" stroke-miterlimit="4"/><path d=" M 6.542 11 L 3.876 15 L 7.876 15 L 5.209 19" fill="none" vector-effect="non-scaling-stroke" stroke-width="2" stroke="rgb(0,0,0)" stroke-linejoin="round" stroke-linecap="round" stroke-miterlimit="4"/><path d=" M 12.875 11 L 13.936 12.061 C 14.365 12.49 14.494 13.135 14.261 13.696 C 14.029 14.256 13.482 14.622 12.876 14.622 C 12.269 14.622 11.722 14.256 11.49 13.696 C 11.258 13.135 11.386 12.49 11.815 12.061 L 12.875 11 Z " fill="none" vector-effect="non-scaling-stroke" stroke-width="2" stroke="rgb(0,0,0)" stroke-linejoin="round" stroke-linecap="round" stroke-miterlimit="4"/><path d=" M 15.875 17 L 16.936 18.061 C 17.365 18.49 17.494 19.135 17.261 19.696 C 17.029 20.257 16.482 20.622 15.876 20.622 C 15.269 20.622 14.722 20.257 14.49 19.696 C 14.258 19.135 14.386 18.49 14.815 18.061 L 15.875 17 Z " fill="none" vector-effect="non-scaling-stroke" stroke-width="2" stroke="rgb(0,0,0)" stroke-linejoin="round" stroke-linecap="round" stroke-miterlimit="4"/></g></svg>