<svg width="24" height="24" viewBox="0 0 24 24" fill="none" xmlns="http://www.w3.org/2000/svg">
<path d="M12 22C17.5228 22 22 17.5228 22 12C22 6.47715 17.5228 2 12 2C6.47715 2 2 6.47715 2 12C2 17.5228 6.47715 22 12 22Z" stroke="black" stroke-width="2" stroke-linecap="round" stroke-linejoin="round"/>
<path d="M14.5 10C14.5 13 9.5 13.5 9.5 15.5H14.5" stroke="black" stroke-width="2" stroke-linecap="round" stroke-linejoin="round"/>
<path d="M14.5 10C14.5 9.40474 14.2876 8.82902 13.901 8.37638C13.5144 7.92374 12.979 7.6239 12.3911 7.53078C11.8032 7.43766 11.2013 7.55738 10.6938 7.8684C10.1862 8.17942 9.8063 8.66133 9.62236 9.22746" stroke="black" stroke-width="2" stroke-linecap="round" stroke-linejoin="round"/>
</svg>
