<?xml version="1.0" standalone="no"?><!-- Generator: Gravit.io --><svg xmlns="http://www.w3.org/2000/svg" xmlns:xlink="http://www.w3.org/1999/xlink" style="isolation:isolate" viewBox="0 0 24 24" width="24" height="24"><defs><clipPath id="_clipPath_7RTu353kJMshguFXiQ9YtpcyIsv3d0hU"><rect width="24" height="24"/></clipPath></defs><g clip-path="url(#_clipPath_7RTu353kJMshguFXiQ9YtpcyIsv3d0hU)"><path d=" M 10.29 3.911 L 1.82 18.051 C 1.465 18.667 1.463 19.425 1.814 20.042 C 2.166 20.659 2.819 21.044 3.53 21.051 L 20.47 21.051 C 21.181 21.044 21.834 20.659 22.186 20.042 C 22.537 19.425 22.535 18.667 22.18 18.051 L 13.71 3.911 C 13.347 3.314 12.699 2.949 12 2.949 C 11.301 2.949 10.653 3.314 10.29 3.911 Z " fill="none" vector-effect="non-scaling-stroke" stroke-width="2" stroke="rgb(0,0,0)" stroke-opacity="100" stroke-linejoin="round" stroke-linecap="round" stroke-miterlimit="4"/><line x1="12" y1="17" x2="12" y2="17" vector-effect="non-scaling-stroke" stroke-width="2" stroke="rgb(0,0,0)" stroke-opacity="100" stroke-linejoin="round" stroke-linecap="round" stroke-miterlimit="4"/><path d=" M 10 11 C 10 9.985 10.896 9 12 9 C 13.103 9 13.967 9.905 13.999 11 C 14.026 11.907 13.073 12.567 12.641 12.999 Q 12 13.509 12 13.934 L 12 14.551" fill="none" vector-effect="non-scaling-stroke" stroke-width="2" stroke="rgb(0,0,0)" stroke-opacity="100" stroke-linejoin="round" stroke-linecap="round" stroke-miterlimit="3"/></g></svg>