<?xml version="1.0" standalone="no"?><!-- Generator: Gravit.io --><svg xmlns="http://www.w3.org/2000/svg" xmlns:xlink="http://www.w3.org/1999/xlink" style="isolation:isolate" viewBox="0 0 24 24" width="24" height="24"><defs><clipPath id="_clipPath_OTBgUQ2W8hQLF2u8d4xQux5L4xiEjt5Y"><rect width="24" height="24"/></clipPath></defs><g clip-path="url(#_clipPath_OTBgUQ2W8hQLF2u8d4xQux5L4xiEjt5Y)"><path d=" M 10.092 4.092 C 10.478 3.706 11.011 3.467 11.6 3.467 C 12.777 3.467 13.733 4.423 13.733 5.6 C 13.733 6.777 12.777 7.733 11.6 7.733 L 4.133 7.733" fill="none" vector-effect="non-scaling-stroke" stroke-width="2" stroke="rgb(0,0,0)" stroke-linejoin="round" stroke-linecap="round" stroke-miterlimit="3"/><path d=" M 15.425 19.908 C 15.811 20.294 16.345 20.533 16.933 20.533 C 18.111 20.533 19.067 19.577 19.067 18.4 C 19.067 17.223 18.111 16.267 16.933 16.267 L 3.067 16.267" fill="none" vector-effect="non-scaling-stroke" stroke-width="2" stroke="rgb(0,0,0)" stroke-linejoin="round" stroke-linecap="round" stroke-miterlimit="3"/><path d=" M 19.333 6.667 C 20.805 6.667 22 7.862 22 9.333 C 22 10.805 20.805 12 19.333 12 L 2 12" fill="none" vector-effect="non-scaling-stroke" stroke-width="2" stroke="rgb(0,0,0)" stroke-linejoin="round" stroke-linecap="round" stroke-miterlimit="3"/></g></svg>